%TF.GenerationSoftware,KiCad,Pcbnew,9.0.3*%
%TF.CreationDate,2025-10-01T18:20:22-04:00*%
%TF.ProjectId,ephys-test-module-molc-64-chan,65706879-732d-4746-9573-742d6d6f6475,A*%
%TF.SameCoordinates,Original*%
%TF.FileFunction,Legend,Bot*%
%TF.FilePolarity,Positive*%
%FSLAX46Y46*%
G04 Gerber Fmt 4.6, Leading zero omitted, Abs format (unit mm)*
G04 Created by KiCad (PCBNEW 9.0.3) date 2025-10-01 18:20:22*
%MOMM*%
%LPD*%
G01*
G04 APERTURE LIST*
%ADD10C,0.150000*%
%ADD11C,0.200000*%
G04 APERTURE END LIST*
D10*
X123533333Y-119654819D02*
X123533333Y-120369104D01*
X123533333Y-120369104D02*
X123580952Y-120511961D01*
X123580952Y-120511961D02*
X123676190Y-120607200D01*
X123676190Y-120607200D02*
X123819047Y-120654819D01*
X123819047Y-120654819D02*
X123914285Y-120654819D01*
X122628571Y-119988152D02*
X122628571Y-120654819D01*
X122866666Y-119607200D02*
X123104761Y-120321485D01*
X123104761Y-120321485D02*
X122485714Y-120321485D01*
X193533333Y-119654819D02*
X193533333Y-120369104D01*
X193533333Y-120369104D02*
X193580952Y-120511961D01*
X193580952Y-120511961D02*
X193676190Y-120607200D01*
X193676190Y-120607200D02*
X193819047Y-120654819D01*
X193819047Y-120654819D02*
X193914285Y-120654819D01*
X192580952Y-119654819D02*
X193057142Y-119654819D01*
X193057142Y-119654819D02*
X193104761Y-120131009D01*
X193104761Y-120131009D02*
X193057142Y-120083390D01*
X193057142Y-120083390D02*
X192961904Y-120035771D01*
X192961904Y-120035771D02*
X192723809Y-120035771D01*
X192723809Y-120035771D02*
X192628571Y-120083390D01*
X192628571Y-120083390D02*
X192580952Y-120131009D01*
X192580952Y-120131009D02*
X192533333Y-120226247D01*
X192533333Y-120226247D02*
X192533333Y-120464342D01*
X192533333Y-120464342D02*
X192580952Y-120559580D01*
X192580952Y-120559580D02*
X192628571Y-120607200D01*
X192628571Y-120607200D02*
X192723809Y-120654819D01*
X192723809Y-120654819D02*
X192961904Y-120654819D01*
X192961904Y-120654819D02*
X193057142Y-120607200D01*
X193057142Y-120607200D02*
X193104761Y-120559580D01*
D11*
%TO.C,J4*%
X119380500Y-81365000D02*
X119380500Y-83845000D01*
X119380500Y-118635000D02*
X119380500Y-116155000D01*
X121600000Y-81365000D02*
X126619500Y-81365000D01*
X121600000Y-118635000D02*
X126619500Y-118635000D01*
X126619500Y-81365000D02*
X126619500Y-83845000D01*
X126619500Y-118635000D02*
X126619500Y-116155000D01*
X127700000Y-84400000D02*
G75*
G02*
X127500000Y-84400000I-100000J0D01*
G01*
X127500000Y-84400000D02*
G75*
G02*
X127700000Y-84400000I100000J0D01*
G01*
%TO.C,J5*%
X189380500Y-81365000D02*
X189380500Y-83845000D01*
X189380500Y-118635000D02*
X189380500Y-116155000D01*
X191600000Y-81365000D02*
X196619500Y-81365000D01*
X191600000Y-118635000D02*
X196619500Y-118635000D01*
X196619500Y-81365000D02*
X196619500Y-83845000D01*
X196619500Y-118635000D02*
X196619500Y-116155000D01*
X197700000Y-84400000D02*
G75*
G02*
X197500000Y-84400000I-100000J0D01*
G01*
X197500000Y-84400000D02*
G75*
G02*
X197700000Y-84400000I100000J0D01*
G01*
%TD*%
M02*
