%TF.GenerationSoftware,KiCad,Pcbnew,9.0.3*%
%TF.CreationDate,2025-10-01T18:20:22-04:00*%
%TF.ProjectId,ephys-test-module-molc-64-chan,65706879-732d-4746-9573-742d6d6f6475,A*%
%TF.SameCoordinates,Original*%
%TF.FileFunction,AssemblyDrawing,Top*%
%FSLAX46Y46*%
G04 Gerber Fmt 4.6, Leading zero omitted, Abs format (unit mm)*
G04 Created by KiCad (PCBNEW 9.0.3) date 2025-10-01 18:20:22*
%MOMM*%
%LPD*%
G01*
G04 APERTURE LIST*
%ADD10C,0.150000*%
%ADD11C,0.040000*%
%ADD12C,0.100000*%
G04 APERTURE END LIST*
D10*
X192666666Y-121554819D02*
X192666666Y-122269104D01*
X192666666Y-122269104D02*
X192619047Y-122411961D01*
X192619047Y-122411961D02*
X192523809Y-122507200D01*
X192523809Y-122507200D02*
X192380952Y-122554819D01*
X192380952Y-122554819D02*
X192285714Y-122554819D01*
X193047619Y-121554819D02*
X193666666Y-121554819D01*
X193666666Y-121554819D02*
X193333333Y-121935771D01*
X193333333Y-121935771D02*
X193476190Y-121935771D01*
X193476190Y-121935771D02*
X193571428Y-121983390D01*
X193571428Y-121983390D02*
X193619047Y-122031009D01*
X193619047Y-122031009D02*
X193666666Y-122126247D01*
X193666666Y-122126247D02*
X193666666Y-122364342D01*
X193666666Y-122364342D02*
X193619047Y-122459580D01*
X193619047Y-122459580D02*
X193571428Y-122507200D01*
X193571428Y-122507200D02*
X193476190Y-122554819D01*
X193476190Y-122554819D02*
X193190476Y-122554819D01*
X193190476Y-122554819D02*
X193095238Y-122507200D01*
X193095238Y-122507200D02*
X193047619Y-122459580D01*
D11*
X123156667Y-120118200D02*
X123070000Y-119994391D01*
X123008095Y-120118200D02*
X123008095Y-119858200D01*
X123008095Y-119858200D02*
X123107143Y-119858200D01*
X123107143Y-119858200D02*
X123131905Y-119870581D01*
X123131905Y-119870581D02*
X123144286Y-119882962D01*
X123144286Y-119882962D02*
X123156667Y-119907724D01*
X123156667Y-119907724D02*
X123156667Y-119944867D01*
X123156667Y-119944867D02*
X123144286Y-119969629D01*
X123144286Y-119969629D02*
X123131905Y-119982010D01*
X123131905Y-119982010D02*
X123107143Y-119994391D01*
X123107143Y-119994391D02*
X123008095Y-119994391D01*
X123255714Y-119882962D02*
X123268095Y-119870581D01*
X123268095Y-119870581D02*
X123292857Y-119858200D01*
X123292857Y-119858200D02*
X123354762Y-119858200D01*
X123354762Y-119858200D02*
X123379524Y-119870581D01*
X123379524Y-119870581D02*
X123391905Y-119882962D01*
X123391905Y-119882962D02*
X123404286Y-119907724D01*
X123404286Y-119907724D02*
X123404286Y-119932486D01*
X123404286Y-119932486D02*
X123391905Y-119969629D01*
X123391905Y-119969629D02*
X123243333Y-120118200D01*
X123243333Y-120118200D02*
X123404286Y-120118200D01*
D10*
X157666666Y-102169819D02*
X157666666Y-102884104D01*
X157666666Y-102884104D02*
X157619047Y-103026961D01*
X157619047Y-103026961D02*
X157523809Y-103122200D01*
X157523809Y-103122200D02*
X157380952Y-103169819D01*
X157380952Y-103169819D02*
X157285714Y-103169819D01*
X158666666Y-103169819D02*
X158095238Y-103169819D01*
X158380952Y-103169819D02*
X158380952Y-102169819D01*
X158380952Y-102169819D02*
X158285714Y-102312676D01*
X158285714Y-102312676D02*
X158190476Y-102407914D01*
X158190476Y-102407914D02*
X158095238Y-102455533D01*
D11*
X121856667Y-121218200D02*
X121770000Y-121094391D01*
X121708095Y-121218200D02*
X121708095Y-120958200D01*
X121708095Y-120958200D02*
X121807143Y-120958200D01*
X121807143Y-120958200D02*
X121831905Y-120970581D01*
X121831905Y-120970581D02*
X121844286Y-120982962D01*
X121844286Y-120982962D02*
X121856667Y-121007724D01*
X121856667Y-121007724D02*
X121856667Y-121044867D01*
X121856667Y-121044867D02*
X121844286Y-121069629D01*
X121844286Y-121069629D02*
X121831905Y-121082010D01*
X121831905Y-121082010D02*
X121807143Y-121094391D01*
X121807143Y-121094391D02*
X121708095Y-121094391D01*
X122104286Y-121218200D02*
X121955714Y-121218200D01*
X122030000Y-121218200D02*
X122030000Y-120958200D01*
X122030000Y-120958200D02*
X122005238Y-120995343D01*
X122005238Y-120995343D02*
X121980476Y-121020105D01*
X121980476Y-121020105D02*
X121955714Y-121032486D01*
D10*
X122038095Y-95054819D02*
X122038095Y-94054819D01*
X122038095Y-94531009D02*
X122609523Y-94531009D01*
X122609523Y-95054819D02*
X122609523Y-94054819D01*
X123609523Y-95054819D02*
X123038095Y-95054819D01*
X123323809Y-95054819D02*
X123323809Y-94054819D01*
X123323809Y-94054819D02*
X123228571Y-94197676D01*
X123228571Y-94197676D02*
X123133333Y-94292914D01*
X123133333Y-94292914D02*
X123038095Y-94340533D01*
X122665566Y-126446666D02*
X123458900Y-126446666D01*
X123458900Y-126446666D02*
X123552233Y-126400000D01*
X123552233Y-126400000D02*
X123598900Y-126353333D01*
X123598900Y-126353333D02*
X123645566Y-126260000D01*
X123645566Y-126260000D02*
X123645566Y-126073333D01*
X123645566Y-126073333D02*
X123598900Y-125980000D01*
X123598900Y-125980000D02*
X123552233Y-125933333D01*
X123552233Y-125933333D02*
X123458900Y-125886666D01*
X123458900Y-125886666D02*
X122665566Y-125886666D01*
X123645566Y-124906666D02*
X123645566Y-125466666D01*
X123645566Y-125186666D02*
X122665566Y-125186666D01*
X122665566Y-125186666D02*
X122805566Y-125279999D01*
X122805566Y-125279999D02*
X122898900Y-125373333D01*
X122898900Y-125373333D02*
X122945566Y-125466666D01*
D11*
X124556667Y-118918200D02*
X124470000Y-118794391D01*
X124408095Y-118918200D02*
X124408095Y-118658200D01*
X124408095Y-118658200D02*
X124507143Y-118658200D01*
X124507143Y-118658200D02*
X124531905Y-118670581D01*
X124531905Y-118670581D02*
X124544286Y-118682962D01*
X124544286Y-118682962D02*
X124556667Y-118707724D01*
X124556667Y-118707724D02*
X124556667Y-118744867D01*
X124556667Y-118744867D02*
X124544286Y-118769629D01*
X124544286Y-118769629D02*
X124531905Y-118782010D01*
X124531905Y-118782010D02*
X124507143Y-118794391D01*
X124507143Y-118794391D02*
X124408095Y-118794391D01*
X124643333Y-118658200D02*
X124804286Y-118658200D01*
X124804286Y-118658200D02*
X124717619Y-118757248D01*
X124717619Y-118757248D02*
X124754762Y-118757248D01*
X124754762Y-118757248D02*
X124779524Y-118769629D01*
X124779524Y-118769629D02*
X124791905Y-118782010D01*
X124791905Y-118782010D02*
X124804286Y-118806772D01*
X124804286Y-118806772D02*
X124804286Y-118868677D01*
X124804286Y-118868677D02*
X124791905Y-118893439D01*
X124791905Y-118893439D02*
X124779524Y-118905820D01*
X124779524Y-118905820D02*
X124754762Y-118918200D01*
X124754762Y-118918200D02*
X124680476Y-118918200D01*
X124680476Y-118918200D02*
X124655714Y-118905820D01*
X124655714Y-118905820D02*
X124643333Y-118893439D01*
D10*
X157666666Y-119169819D02*
X157666666Y-119884104D01*
X157666666Y-119884104D02*
X157619047Y-120026961D01*
X157619047Y-120026961D02*
X157523809Y-120122200D01*
X157523809Y-120122200D02*
X157380952Y-120169819D01*
X157380952Y-120169819D02*
X157285714Y-120169819D01*
X158095238Y-119265057D02*
X158142857Y-119217438D01*
X158142857Y-119217438D02*
X158238095Y-119169819D01*
X158238095Y-119169819D02*
X158476190Y-119169819D01*
X158476190Y-119169819D02*
X158571428Y-119217438D01*
X158571428Y-119217438D02*
X158619047Y-119265057D01*
X158619047Y-119265057D02*
X158666666Y-119360295D01*
X158666666Y-119360295D02*
X158666666Y-119455533D01*
X158666666Y-119455533D02*
X158619047Y-119598390D01*
X158619047Y-119598390D02*
X158047619Y-120169819D01*
X158047619Y-120169819D02*
X158666666Y-120169819D01*
D11*
X119789765Y-125741666D02*
X119801670Y-125753570D01*
X119801670Y-125753570D02*
X119813574Y-125789285D01*
X119813574Y-125789285D02*
X119813574Y-125813094D01*
X119813574Y-125813094D02*
X119801670Y-125848808D01*
X119801670Y-125848808D02*
X119777860Y-125872618D01*
X119777860Y-125872618D02*
X119754050Y-125884523D01*
X119754050Y-125884523D02*
X119706431Y-125896427D01*
X119706431Y-125896427D02*
X119670717Y-125896427D01*
X119670717Y-125896427D02*
X119623098Y-125884523D01*
X119623098Y-125884523D02*
X119599289Y-125872618D01*
X119599289Y-125872618D02*
X119575479Y-125848808D01*
X119575479Y-125848808D02*
X119563574Y-125813094D01*
X119563574Y-125813094D02*
X119563574Y-125789285D01*
X119563574Y-125789285D02*
X119575479Y-125753570D01*
X119575479Y-125753570D02*
X119587384Y-125741666D01*
X119813574Y-125503570D02*
X119813574Y-125646427D01*
X119813574Y-125574999D02*
X119563574Y-125574999D01*
X119563574Y-125574999D02*
X119599289Y-125598808D01*
X119599289Y-125598808D02*
X119623098Y-125622618D01*
X119623098Y-125622618D02*
X119635003Y-125646427D01*
D12*
%TO.C,J3*%
X189400000Y-120510000D02*
X190460000Y-120510000D01*
X189400000Y-121150000D02*
X189400000Y-120510000D01*
X189400000Y-123050000D02*
X190460000Y-123050000D01*
X189400000Y-123690000D02*
X189400000Y-123050000D01*
X190460000Y-119560000D02*
X195540000Y-119560000D01*
X190460000Y-121150000D02*
X189400000Y-121150000D01*
X190460000Y-123690000D02*
X189400000Y-123690000D01*
X190460000Y-124640000D02*
X190460000Y-119560000D01*
X194590000Y-124640000D02*
X190460000Y-124640000D01*
X195540000Y-119560000D02*
X195540000Y-123690000D01*
X195540000Y-121150000D02*
X196600000Y-121150000D01*
X195540000Y-123690000D02*
X194590000Y-124640000D01*
X195540000Y-123690000D02*
X196600000Y-123690000D01*
X196600000Y-120510000D02*
X195540000Y-120510000D01*
X196600000Y-121150000D02*
X196600000Y-120510000D01*
X196600000Y-123050000D02*
X195540000Y-123050000D01*
X196600000Y-123690000D02*
X196600000Y-123050000D01*
%TO.C,R2*%
X122675000Y-119730000D02*
X123725000Y-119730000D01*
X122675000Y-120270000D02*
X122675000Y-119730000D01*
X123725000Y-119730000D02*
X123725000Y-120270000D01*
X123725000Y-120270000D02*
X122675000Y-120270000D01*
%TO.C,J1*%
X153935000Y-95095000D02*
X160400000Y-95095000D01*
X153935000Y-110335000D02*
X153935000Y-95095000D01*
X162065000Y-96515000D02*
X162065000Y-110335000D01*
X162065000Y-110335000D02*
X153935000Y-110335000D01*
%TO.C,R1*%
X121375000Y-120830000D02*
X122425000Y-120830000D01*
X121375000Y-121370000D02*
X121375000Y-120830000D01*
X122425000Y-120830000D02*
X122425000Y-121370000D01*
X122425000Y-121370000D02*
X121375000Y-121370000D01*
%TO.C,H1*%
X112600000Y-90400000D02*
X133000000Y-90400000D01*
X133000000Y-98800000D01*
X112600000Y-98800000D01*
X112600000Y-90400000D01*
%TO.C,U1*%
X120750000Y-123750000D02*
X125650000Y-123750000D01*
X120750000Y-126675000D02*
X120750000Y-123750000D01*
X121725000Y-127650000D02*
X120750000Y-126675000D01*
X125650000Y-123750000D02*
X125650000Y-127650000D01*
X125650000Y-127650000D02*
X121725000Y-127650000D01*
%TO.C,R3*%
X124075000Y-118530000D02*
X125125000Y-118530000D01*
X124075000Y-119070000D02*
X124075000Y-118530000D01*
X125125000Y-118530000D02*
X125125000Y-119070000D01*
X125125000Y-119070000D02*
X124075000Y-119070000D01*
%TO.C,J2*%
X153935000Y-112095000D02*
X160400000Y-112095000D01*
X153935000Y-127335000D02*
X153935000Y-112095000D01*
X162065000Y-113515000D02*
X162065000Y-127335000D01*
X162065000Y-127335000D02*
X153935000Y-127335000D01*
%TO.C,C1*%
X119450000Y-125200000D02*
X119950000Y-125200000D01*
X119450000Y-126200000D02*
X119450000Y-125200000D01*
X119950000Y-125200000D02*
X119950000Y-126200000D01*
X119950000Y-126200000D02*
X119450000Y-126200000D01*
%TD*%
M02*
