M48
; DRILL file {KiCad 9.0.3} date 2025-10-24T12:13:39-0400
; FORMAT={-:-/ absolute / metric / decimal}
; #@! TF.CreationDate,2025-10-24T12:13:39-04:00
; #@! TF.GenerationSoftware,Kicad,Pcbnew,9.0.3
; #@! TF.FileFunction,Plated,1,2,PTH
FMAT,2
METRIC
; #@! TA.AperFunction,Plated,PTH,ViaDrill
T1C0.300
; #@! TA.AperFunction,Plated,PTH,ComponentDrill
T2C0.500
%
G90
G05
T1
X113.1Y-94.4
X113.27Y-112.5
X113.5Y-81.7
X113.8Y-133.9
X118.1Y-116.1
X119.7Y-123.7
X120.8Y-121.0
X122.2Y-119.6
X123.45Y-118.35
X125.1Y-119.7
X125.1Y-120.9
X125.863Y-116.536
X127.7Y-115.4
X128.9Y-99.6
X128.9Y-133.6
X129.0Y-92.4
X129.0Y-107.0
X133.6Y-117.0
X135.0Y-80.8
X135.3Y-107.5
X138.4Y-123.3
X138.9Y-92.5
X139.0Y-101.4
X141.9Y-133.0
X144.8Y-117.0
X145.2Y-107.6
X148.4Y-81.1
X150.2Y-111.0
X150.3Y-103.0
X150.7Y-129.4
X150.9Y-120.0
X154.4Y-111.1
X154.9Y-92.6
X160.8Y-109.7
X161.4Y-132.3
X161.7Y-110.0
X161.7Y-112.9
X161.7Y-126.3
X162.5Y-90.5
X163.4Y-102.9
X165.1Y-120.0
X165.7Y-103.0
X165.8Y-111.0
X170.8Y-107.6
X171.2Y-117.0
X174.067Y-80.222
X177.0Y-101.4
X177.1Y-92.5
X177.6Y-123.3
X179.7Y-132.6
X180.7Y-107.5
X182.4Y-117.0
X184.9Y-80.2
X187.0Y-92.4
X187.0Y-107.0
X193.9Y-134.7
X194.3Y-122.1
X201.725Y-119.47
X202.9Y-91.1
X203.0Y-80.9
X203.2Y-107.5
T2
X156.095Y-97.0
X156.095Y-98.27
X156.095Y-99.54
X156.095Y-100.81
X156.095Y-102.08
X156.095Y-103.35
X156.095Y-104.62
X156.095Y-105.89
X156.095Y-107.16
X156.095Y-108.43
X156.095Y-114.0
X156.095Y-115.27
X156.095Y-116.54
X156.095Y-117.81
X156.095Y-119.08
X156.095Y-120.35
X156.095Y-121.62
X156.095Y-122.89
X156.095Y-124.16
X156.095Y-125.43
X157.365Y-97.0
X157.365Y-98.27
X157.365Y-99.54
X157.365Y-100.81
X157.365Y-102.08
X157.365Y-103.35
X157.365Y-104.62
X157.365Y-105.89
X157.365Y-107.16
X157.365Y-108.43
X157.365Y-114.0
X157.365Y-115.27
X157.365Y-116.54
X157.365Y-117.81
X157.365Y-119.08
X157.365Y-120.35
X157.365Y-121.62
X157.365Y-122.89
X157.365Y-124.16
X157.365Y-125.43
X158.635Y-97.0
X158.635Y-98.27
X158.635Y-99.54
X158.635Y-100.81
X158.635Y-102.08
X158.635Y-103.35
X158.635Y-104.62
X158.635Y-105.89
X158.635Y-107.16
X158.635Y-108.43
X158.635Y-114.0
X158.635Y-115.27
X158.635Y-116.54
X158.635Y-117.81
X158.635Y-119.08
X158.635Y-120.35
X158.635Y-121.62
X158.635Y-122.89
X158.635Y-124.16
X158.635Y-125.43
X159.905Y-97.0
X159.905Y-98.27
X159.905Y-99.54
X159.905Y-100.81
X159.905Y-102.08
X159.905Y-103.35
X159.905Y-104.62
X159.905Y-105.89
X159.905Y-107.16
X159.905Y-108.43
X159.905Y-114.0
X159.905Y-115.27
X159.905Y-116.54
X159.905Y-117.81
X159.905Y-119.08
X159.905Y-120.35
X159.905Y-121.62
X159.905Y-122.89
X159.905Y-124.16
X159.905Y-125.43
M30
