%TF.GenerationSoftware,KiCad,Pcbnew,9.0.3*%
%TF.CreationDate,2025-10-24T12:13:40-04:00*%
%TF.ProjectId,ephys-test-module-molc-64-chan,65706879-732d-4746-9573-742d6d6f6475,B*%
%TF.SameCoordinates,Original*%
%TF.FileFunction,AssemblyDrawing,Bot*%
%FSLAX46Y46*%
G04 Gerber Fmt 4.6, Leading zero omitted, Abs format (unit mm)*
G04 Created by KiCad (PCBNEW 9.0.3) date 2025-10-24 12:13:40*
%MOMM*%
%LPD*%
G01*
G04 APERTURE LIST*
%ADD10C,0.150000*%
%ADD11C,0.100000*%
%ADD12C,0.200000*%
G04 APERTURE END LIST*
D10*
X122454819Y-99666666D02*
X123169104Y-99666666D01*
X123169104Y-99666666D02*
X123311961Y-99619047D01*
X123311961Y-99619047D02*
X123407200Y-99523809D01*
X123407200Y-99523809D02*
X123454819Y-99380952D01*
X123454819Y-99380952D02*
X123454819Y-99285714D01*
X122788152Y-100571428D02*
X123454819Y-100571428D01*
X122407200Y-100333333D02*
X123121485Y-100095238D01*
X123121485Y-100095238D02*
X123121485Y-100714285D01*
X153354819Y-116209523D02*
X152878628Y-115876190D01*
X153354819Y-115638095D02*
X152354819Y-115638095D01*
X152354819Y-115638095D02*
X152354819Y-116019047D01*
X152354819Y-116019047D02*
X152402438Y-116114285D01*
X152402438Y-116114285D02*
X152450057Y-116161904D01*
X152450057Y-116161904D02*
X152545295Y-116209523D01*
X152545295Y-116209523D02*
X152688152Y-116209523D01*
X152688152Y-116209523D02*
X152783390Y-116161904D01*
X152783390Y-116161904D02*
X152831009Y-116114285D01*
X152831009Y-116114285D02*
X152878628Y-116019047D01*
X152878628Y-116019047D02*
X152878628Y-115638095D01*
X153354819Y-116638095D02*
X152354819Y-116638095D01*
X152354819Y-116638095D02*
X153354819Y-117209523D01*
X153354819Y-117209523D02*
X152354819Y-117209523D01*
X152450057Y-117638095D02*
X152402438Y-117685714D01*
X152402438Y-117685714D02*
X152354819Y-117780952D01*
X152354819Y-117780952D02*
X152354819Y-118019047D01*
X152354819Y-118019047D02*
X152402438Y-118114285D01*
X152402438Y-118114285D02*
X152450057Y-118161904D01*
X152450057Y-118161904D02*
X152545295Y-118209523D01*
X152545295Y-118209523D02*
X152640533Y-118209523D01*
X152640533Y-118209523D02*
X152783390Y-118161904D01*
X152783390Y-118161904D02*
X153354819Y-117590476D01*
X153354819Y-117590476D02*
X153354819Y-118209523D01*
X163554819Y-116209523D02*
X163078628Y-115876190D01*
X163554819Y-115638095D02*
X162554819Y-115638095D01*
X162554819Y-115638095D02*
X162554819Y-116019047D01*
X162554819Y-116019047D02*
X162602438Y-116114285D01*
X162602438Y-116114285D02*
X162650057Y-116161904D01*
X162650057Y-116161904D02*
X162745295Y-116209523D01*
X162745295Y-116209523D02*
X162888152Y-116209523D01*
X162888152Y-116209523D02*
X162983390Y-116161904D01*
X162983390Y-116161904D02*
X163031009Y-116114285D01*
X163031009Y-116114285D02*
X163078628Y-116019047D01*
X163078628Y-116019047D02*
X163078628Y-115638095D01*
X163554819Y-116638095D02*
X162554819Y-116638095D01*
X162554819Y-116638095D02*
X163554819Y-117209523D01*
X163554819Y-117209523D02*
X162554819Y-117209523D01*
X162554819Y-118161904D02*
X162554819Y-117685714D01*
X162554819Y-117685714D02*
X163031009Y-117638095D01*
X163031009Y-117638095D02*
X162983390Y-117685714D01*
X162983390Y-117685714D02*
X162935771Y-117780952D01*
X162935771Y-117780952D02*
X162935771Y-118019047D01*
X162935771Y-118019047D02*
X162983390Y-118114285D01*
X162983390Y-118114285D02*
X163031009Y-118161904D01*
X163031009Y-118161904D02*
X163126247Y-118209523D01*
X163126247Y-118209523D02*
X163364342Y-118209523D01*
X163364342Y-118209523D02*
X163459580Y-118161904D01*
X163459580Y-118161904D02*
X163507200Y-118114285D01*
X163507200Y-118114285D02*
X163554819Y-118019047D01*
X163554819Y-118019047D02*
X163554819Y-117780952D01*
X163554819Y-117780952D02*
X163507200Y-117685714D01*
X163507200Y-117685714D02*
X163459580Y-117638095D01*
X163554819Y-122309523D02*
X163078628Y-121976190D01*
X163554819Y-121738095D02*
X162554819Y-121738095D01*
X162554819Y-121738095D02*
X162554819Y-122119047D01*
X162554819Y-122119047D02*
X162602438Y-122214285D01*
X162602438Y-122214285D02*
X162650057Y-122261904D01*
X162650057Y-122261904D02*
X162745295Y-122309523D01*
X162745295Y-122309523D02*
X162888152Y-122309523D01*
X162888152Y-122309523D02*
X162983390Y-122261904D01*
X162983390Y-122261904D02*
X163031009Y-122214285D01*
X163031009Y-122214285D02*
X163078628Y-122119047D01*
X163078628Y-122119047D02*
X163078628Y-121738095D01*
X163554819Y-122738095D02*
X162554819Y-122738095D01*
X162554819Y-122738095D02*
X163554819Y-123309523D01*
X163554819Y-123309523D02*
X162554819Y-123309523D01*
X162554819Y-123690476D02*
X162554819Y-124357142D01*
X162554819Y-124357142D02*
X163554819Y-123928571D01*
X153354819Y-122309523D02*
X152878628Y-121976190D01*
X153354819Y-121738095D02*
X152354819Y-121738095D01*
X152354819Y-121738095D02*
X152354819Y-122119047D01*
X152354819Y-122119047D02*
X152402438Y-122214285D01*
X152402438Y-122214285D02*
X152450057Y-122261904D01*
X152450057Y-122261904D02*
X152545295Y-122309523D01*
X152545295Y-122309523D02*
X152688152Y-122309523D01*
X152688152Y-122309523D02*
X152783390Y-122261904D01*
X152783390Y-122261904D02*
X152831009Y-122214285D01*
X152831009Y-122214285D02*
X152878628Y-122119047D01*
X152878628Y-122119047D02*
X152878628Y-121738095D01*
X153354819Y-122738095D02*
X152354819Y-122738095D01*
X152354819Y-122738095D02*
X153354819Y-123309523D01*
X153354819Y-123309523D02*
X152354819Y-123309523D01*
X153354819Y-124309523D02*
X153354819Y-123738095D01*
X153354819Y-124023809D02*
X152354819Y-124023809D01*
X152354819Y-124023809D02*
X152497676Y-123928571D01*
X152497676Y-123928571D02*
X152592914Y-123833333D01*
X152592914Y-123833333D02*
X152640533Y-123738095D01*
X153354819Y-105509523D02*
X152878628Y-105176190D01*
X153354819Y-104938095D02*
X152354819Y-104938095D01*
X152354819Y-104938095D02*
X152354819Y-105319047D01*
X152354819Y-105319047D02*
X152402438Y-105414285D01*
X152402438Y-105414285D02*
X152450057Y-105461904D01*
X152450057Y-105461904D02*
X152545295Y-105509523D01*
X152545295Y-105509523D02*
X152688152Y-105509523D01*
X152688152Y-105509523D02*
X152783390Y-105461904D01*
X152783390Y-105461904D02*
X152831009Y-105414285D01*
X152831009Y-105414285D02*
X152878628Y-105319047D01*
X152878628Y-105319047D02*
X152878628Y-104938095D01*
X153354819Y-105938095D02*
X152354819Y-105938095D01*
X152354819Y-105938095D02*
X153354819Y-106509523D01*
X153354819Y-106509523D02*
X152354819Y-106509523D01*
X152354819Y-106890476D02*
X152354819Y-107509523D01*
X152354819Y-107509523D02*
X152735771Y-107176190D01*
X152735771Y-107176190D02*
X152735771Y-107319047D01*
X152735771Y-107319047D02*
X152783390Y-107414285D01*
X152783390Y-107414285D02*
X152831009Y-107461904D01*
X152831009Y-107461904D02*
X152926247Y-107509523D01*
X152926247Y-107509523D02*
X153164342Y-107509523D01*
X153164342Y-107509523D02*
X153259580Y-107461904D01*
X153259580Y-107461904D02*
X153307200Y-107414285D01*
X153307200Y-107414285D02*
X153354819Y-107319047D01*
X153354819Y-107319047D02*
X153354819Y-107033333D01*
X153354819Y-107033333D02*
X153307200Y-106938095D01*
X153307200Y-106938095D02*
X153259580Y-106890476D01*
X153354819Y-99409523D02*
X152878628Y-99076190D01*
X153354819Y-98838095D02*
X152354819Y-98838095D01*
X152354819Y-98838095D02*
X152354819Y-99219047D01*
X152354819Y-99219047D02*
X152402438Y-99314285D01*
X152402438Y-99314285D02*
X152450057Y-99361904D01*
X152450057Y-99361904D02*
X152545295Y-99409523D01*
X152545295Y-99409523D02*
X152688152Y-99409523D01*
X152688152Y-99409523D02*
X152783390Y-99361904D01*
X152783390Y-99361904D02*
X152831009Y-99314285D01*
X152831009Y-99314285D02*
X152878628Y-99219047D01*
X152878628Y-99219047D02*
X152878628Y-98838095D01*
X153354819Y-99838095D02*
X152354819Y-99838095D01*
X152354819Y-99838095D02*
X153354819Y-100409523D01*
X153354819Y-100409523D02*
X152354819Y-100409523D01*
X152688152Y-101314285D02*
X153354819Y-101314285D01*
X152307200Y-101076190D02*
X153021485Y-100838095D01*
X153021485Y-100838095D02*
X153021485Y-101457142D01*
X163554819Y-99409523D02*
X163078628Y-99076190D01*
X163554819Y-98838095D02*
X162554819Y-98838095D01*
X162554819Y-98838095D02*
X162554819Y-99219047D01*
X162554819Y-99219047D02*
X162602438Y-99314285D01*
X162602438Y-99314285D02*
X162650057Y-99361904D01*
X162650057Y-99361904D02*
X162745295Y-99409523D01*
X162745295Y-99409523D02*
X162888152Y-99409523D01*
X162888152Y-99409523D02*
X162983390Y-99361904D01*
X162983390Y-99361904D02*
X163031009Y-99314285D01*
X163031009Y-99314285D02*
X163078628Y-99219047D01*
X163078628Y-99219047D02*
X163078628Y-98838095D01*
X163554819Y-99838095D02*
X162554819Y-99838095D01*
X162554819Y-99838095D02*
X163554819Y-100409523D01*
X163554819Y-100409523D02*
X162554819Y-100409523D01*
X162554819Y-101314285D02*
X162554819Y-101123809D01*
X162554819Y-101123809D02*
X162602438Y-101028571D01*
X162602438Y-101028571D02*
X162650057Y-100980952D01*
X162650057Y-100980952D02*
X162792914Y-100885714D01*
X162792914Y-100885714D02*
X162983390Y-100838095D01*
X162983390Y-100838095D02*
X163364342Y-100838095D01*
X163364342Y-100838095D02*
X163459580Y-100885714D01*
X163459580Y-100885714D02*
X163507200Y-100933333D01*
X163507200Y-100933333D02*
X163554819Y-101028571D01*
X163554819Y-101028571D02*
X163554819Y-101219047D01*
X163554819Y-101219047D02*
X163507200Y-101314285D01*
X163507200Y-101314285D02*
X163459580Y-101361904D01*
X163459580Y-101361904D02*
X163364342Y-101409523D01*
X163364342Y-101409523D02*
X163126247Y-101409523D01*
X163126247Y-101409523D02*
X163031009Y-101361904D01*
X163031009Y-101361904D02*
X162983390Y-101314285D01*
X162983390Y-101314285D02*
X162935771Y-101219047D01*
X162935771Y-101219047D02*
X162935771Y-101028571D01*
X162935771Y-101028571D02*
X162983390Y-100933333D01*
X162983390Y-100933333D02*
X163031009Y-100885714D01*
X163031009Y-100885714D02*
X163126247Y-100838095D01*
X192454819Y-99666666D02*
X193169104Y-99666666D01*
X193169104Y-99666666D02*
X193311961Y-99619047D01*
X193311961Y-99619047D02*
X193407200Y-99523809D01*
X193407200Y-99523809D02*
X193454819Y-99380952D01*
X193454819Y-99380952D02*
X193454819Y-99285714D01*
X192454819Y-100619047D02*
X192454819Y-100142857D01*
X192454819Y-100142857D02*
X192931009Y-100095238D01*
X192931009Y-100095238D02*
X192883390Y-100142857D01*
X192883390Y-100142857D02*
X192835771Y-100238095D01*
X192835771Y-100238095D02*
X192835771Y-100476190D01*
X192835771Y-100476190D02*
X192883390Y-100571428D01*
X192883390Y-100571428D02*
X192931009Y-100619047D01*
X192931009Y-100619047D02*
X193026247Y-100666666D01*
X193026247Y-100666666D02*
X193264342Y-100666666D01*
X193264342Y-100666666D02*
X193359580Y-100619047D01*
X193359580Y-100619047D02*
X193407200Y-100571428D01*
X193407200Y-100571428D02*
X193454819Y-100476190D01*
X193454819Y-100476190D02*
X193454819Y-100238095D01*
X193454819Y-100238095D02*
X193407200Y-100142857D01*
X193407200Y-100142857D02*
X193359580Y-100095238D01*
X163554819Y-105509523D02*
X163078628Y-105176190D01*
X163554819Y-104938095D02*
X162554819Y-104938095D01*
X162554819Y-104938095D02*
X162554819Y-105319047D01*
X162554819Y-105319047D02*
X162602438Y-105414285D01*
X162602438Y-105414285D02*
X162650057Y-105461904D01*
X162650057Y-105461904D02*
X162745295Y-105509523D01*
X162745295Y-105509523D02*
X162888152Y-105509523D01*
X162888152Y-105509523D02*
X162983390Y-105461904D01*
X162983390Y-105461904D02*
X163031009Y-105414285D01*
X163031009Y-105414285D02*
X163078628Y-105319047D01*
X163078628Y-105319047D02*
X163078628Y-104938095D01*
X163554819Y-105938095D02*
X162554819Y-105938095D01*
X162554819Y-105938095D02*
X163554819Y-106509523D01*
X163554819Y-106509523D02*
X162554819Y-106509523D01*
X162983390Y-107128571D02*
X162935771Y-107033333D01*
X162935771Y-107033333D02*
X162888152Y-106985714D01*
X162888152Y-106985714D02*
X162792914Y-106938095D01*
X162792914Y-106938095D02*
X162745295Y-106938095D01*
X162745295Y-106938095D02*
X162650057Y-106985714D01*
X162650057Y-106985714D02*
X162602438Y-107033333D01*
X162602438Y-107033333D02*
X162554819Y-107128571D01*
X162554819Y-107128571D02*
X162554819Y-107319047D01*
X162554819Y-107319047D02*
X162602438Y-107414285D01*
X162602438Y-107414285D02*
X162650057Y-107461904D01*
X162650057Y-107461904D02*
X162745295Y-107509523D01*
X162745295Y-107509523D02*
X162792914Y-107509523D01*
X162792914Y-107509523D02*
X162888152Y-107461904D01*
X162888152Y-107461904D02*
X162935771Y-107414285D01*
X162935771Y-107414285D02*
X162983390Y-107319047D01*
X162983390Y-107319047D02*
X162983390Y-107128571D01*
X162983390Y-107128571D02*
X163031009Y-107033333D01*
X163031009Y-107033333D02*
X163078628Y-106985714D01*
X163078628Y-106985714D02*
X163173866Y-106938095D01*
X163173866Y-106938095D02*
X163364342Y-106938095D01*
X163364342Y-106938095D02*
X163459580Y-106985714D01*
X163459580Y-106985714D02*
X163507200Y-107033333D01*
X163507200Y-107033333D02*
X163554819Y-107128571D01*
X163554819Y-107128571D02*
X163554819Y-107319047D01*
X163554819Y-107319047D02*
X163507200Y-107414285D01*
X163507200Y-107414285D02*
X163459580Y-107461904D01*
X163459580Y-107461904D02*
X163364342Y-107509523D01*
X163364342Y-107509523D02*
X163173866Y-107509523D01*
X163173866Y-107509523D02*
X163078628Y-107461904D01*
X163078628Y-107461904D02*
X163031009Y-107414285D01*
X163031009Y-107414285D02*
X162983390Y-107319047D01*
D11*
%TO.C,J4*%
X119380500Y-81365000D02*
X126619500Y-81365000D01*
X119380500Y-118635000D02*
X119380500Y-81365000D01*
X126619500Y-81365000D02*
X126619500Y-118635000D01*
X126619500Y-118635000D02*
X119380500Y-118635000D01*
D12*
X127700000Y-84400000D02*
G75*
G02*
X127500000Y-84400000I-100000J0D01*
G01*
X127500000Y-84400000D02*
G75*
G02*
X127700000Y-84400000I100000J0D01*
G01*
D11*
%TO.C,RN2*%
X152100000Y-114900000D02*
X153700000Y-114900000D01*
X152100000Y-118900000D02*
X152100000Y-114900000D01*
X153700000Y-114900000D02*
X153700000Y-118900000D01*
X153700000Y-118900000D02*
X152100000Y-118900000D01*
%TO.C,RN5*%
X163900000Y-118900000D02*
X162300000Y-118900000D01*
X163900000Y-114900000D02*
X163900000Y-118900000D01*
X162300000Y-118900000D02*
X162300000Y-114900000D01*
X162300000Y-114900000D02*
X163900000Y-114900000D01*
%TO.C,RN7*%
X163900000Y-125000000D02*
X162300000Y-125000000D01*
X163900000Y-121000000D02*
X163900000Y-125000000D01*
X162300000Y-125000000D02*
X162300000Y-121000000D01*
X162300000Y-121000000D02*
X163900000Y-121000000D01*
%TO.C,RN1*%
X152100000Y-121000000D02*
X153700000Y-121000000D01*
X152100000Y-125000000D02*
X152100000Y-121000000D01*
X153700000Y-121000000D02*
X153700000Y-125000000D01*
X153700000Y-125000000D02*
X152100000Y-125000000D01*
%TO.C,RN3*%
X152100000Y-104200000D02*
X153700000Y-104200000D01*
X152100000Y-108200000D02*
X152100000Y-104200000D01*
X153700000Y-104200000D02*
X153700000Y-108200000D01*
X153700000Y-108200000D02*
X152100000Y-108200000D01*
%TO.C,RN4*%
X152100000Y-98100000D02*
X153700000Y-98100000D01*
X152100000Y-102100000D02*
X152100000Y-98100000D01*
X153700000Y-98100000D02*
X153700000Y-102100000D01*
X153700000Y-102100000D02*
X152100000Y-102100000D01*
%TO.C,RN6*%
X163900000Y-102100000D02*
X162300000Y-102100000D01*
X163900000Y-98100000D02*
X163900000Y-102100000D01*
X162300000Y-102100000D02*
X162300000Y-98100000D01*
X162300000Y-98100000D02*
X163900000Y-98100000D01*
%TO.C,J5*%
X189380500Y-81365000D02*
X196619500Y-81365000D01*
X189380500Y-118635000D02*
X189380500Y-81365000D01*
X196619500Y-81365000D02*
X196619500Y-118635000D01*
X196619500Y-118635000D02*
X189380500Y-118635000D01*
D12*
X197700000Y-84400000D02*
G75*
G02*
X197500000Y-84400000I-100000J0D01*
G01*
X197500000Y-84400000D02*
G75*
G02*
X197700000Y-84400000I100000J0D01*
G01*
D11*
%TO.C,RN8*%
X163900000Y-108200000D02*
X162300000Y-108200000D01*
X163900000Y-104200000D02*
X163900000Y-108200000D01*
X162300000Y-108200000D02*
X162300000Y-104200000D01*
X162300000Y-104200000D02*
X163900000Y-104200000D01*
%TD*%
M02*
