%TF.GenerationSoftware,KiCad,Pcbnew,9.0.5*%
%TF.CreationDate,2025-11-03T13:41:54-05:00*%
%TF.ProjectId,ephys-test-module-molc-64-chan,65706879-732d-4746-9573-742d6d6f6475,B*%
%TF.SameCoordinates,Original*%
%TF.FileFunction,Copper,L1,Top*%
%TF.FilePolarity,Positive*%
%FSLAX46Y46*%
G04 Gerber Fmt 4.6, Leading zero omitted, Abs format (unit mm)*
G04 Created by KiCad (PCBNEW 9.0.5) date 2025-11-03 13:41:54*
%MOMM*%
%LPD*%
G01*
G04 APERTURE LIST*
G04 Aperture macros list*
%AMRoundRect*
0 Rectangle with rounded corners*
0 $1 Rounding radius*
0 $2 $3 $4 $5 $6 $7 $8 $9 X,Y pos of 4 corners*
0 Add a 4 corners polygon primitive as box body*
4,1,4,$2,$3,$4,$5,$6,$7,$8,$9,$2,$3,0*
0 Add four circle primitives for the rounded corners*
1,1,$1+$1,$2,$3*
1,1,$1+$1,$4,$5*
1,1,$1+$1,$6,$7*
1,1,$1+$1,$8,$9*
0 Add four rect primitives between the rounded corners*
20,1,$1+$1,$2,$3,$4,$5,0*
20,1,$1+$1,$4,$5,$6,$7,0*
20,1,$1+$1,$6,$7,$8,$9,0*
20,1,$1+$1,$8,$9,$2,$3,0*%
G04 Aperture macros list end*
%TA.AperFunction,SMDPad,CuDef*%
%ADD10R,3.150000X1.000000*%
%TD*%
%TA.AperFunction,SMDPad,CuDef*%
%ADD11RoundRect,0.135000X-0.135000X-0.185000X0.135000X-0.185000X0.135000X0.185000X-0.135000X0.185000X0*%
%TD*%
%TA.AperFunction,ComponentPad*%
%ADD12R,0.850000X0.850000*%
%TD*%
%TA.AperFunction,ComponentPad*%
%ADD13C,0.850000*%
%TD*%
%TA.AperFunction,SMDPad,CuDef*%
%ADD14RoundRect,0.150000X0.150000X-0.825000X0.150000X0.825000X-0.150000X0.825000X-0.150000X-0.825000X0*%
%TD*%
%TA.AperFunction,SMDPad,CuDef*%
%ADD15RoundRect,0.140000X-0.170000X0.140000X-0.170000X-0.140000X0.170000X-0.140000X0.170000X0.140000X0*%
%TD*%
%TA.AperFunction,ViaPad*%
%ADD16C,0.450000*%
%TD*%
%TA.AperFunction,Conductor*%
%ADD17C,0.400000*%
%TD*%
%TA.AperFunction,Conductor*%
%ADD18C,0.200000*%
%TD*%
%TA.AperFunction,Conductor*%
%ADD19C,0.150000*%
%TD*%
G04 APERTURE END LIST*
D10*
%TO.P,J3,1,Pin_1*%
%TO.N,REF*%
X195525000Y-123370000D03*
%TO.P,J3,2,Pin_2*%
%TO.N,GND*%
X190475000Y-123370000D03*
%TO.P,J3,3,Pin_3*%
%TO.N,REF*%
X195525000Y-120830000D03*
%TO.P,J3,4,Pin_4*%
%TO.N,GND*%
X190475000Y-120830000D03*
%TD*%
D11*
%TO.P,R2,1*%
%TO.N,VCC*%
X122690000Y-120000000D03*
%TO.P,R2,2*%
%TO.N,/Test Signal Interface/SCL*%
X123710000Y-120000000D03*
%TD*%
D12*
%TO.P,J1,A1,A1*%
%TO.N,/Headstage Interface/E24*%
X159905000Y-97000000D03*
D13*
%TO.P,J1,A2,A2*%
%TO.N,/Headstage Interface/E25*%
X159905000Y-98270000D03*
%TO.P,J1,A3,A3*%
%TO.N,/Headstage Interface/E26*%
X159905000Y-99540000D03*
%TO.P,J1,A4,A4*%
%TO.N,/Headstage Interface/E27*%
X159905000Y-100810000D03*
%TO.P,J1,A5,A5*%
%TO.N,/Headstage Interface/E28*%
X159905000Y-102080000D03*
%TO.P,J1,A6,A6*%
%TO.N,/Headstage Interface/E30*%
X159905000Y-103350000D03*
%TO.P,J1,A7,A7*%
%TO.N,/Headstage Interface/E16*%
X159905000Y-104620000D03*
%TO.P,J1,A8,A8*%
%TO.N,/Headstage Interface/E18*%
X159905000Y-105890000D03*
%TO.P,J1,A9,A9*%
%TO.N,/Headstage Interface/E20*%
X159905000Y-107160000D03*
%TO.P,J1,A10,A10*%
%TO.N,/Headstage Interface/E22*%
X159905000Y-108430000D03*
%TO.P,J1,B1,B1*%
%TO.N,REF*%
X158635000Y-97000000D03*
%TO.P,J1,B2,B2*%
%TO.N,unconnected-(J1-PadB2)*%
X158635000Y-98270000D03*
%TO.P,J1,B3,B3*%
%TO.N,unconnected-(J1-PadB3)*%
X158635000Y-99540000D03*
%TO.P,J1,B4,B4*%
%TO.N,unconnected-(J1-PadB4)*%
X158635000Y-100810000D03*
%TO.P,J1,B5,B5*%
%TO.N,/Headstage Interface/E29*%
X158635000Y-102080000D03*
%TO.P,J1,B6,B6*%
%TO.N,/Headstage Interface/E31*%
X158635000Y-103350000D03*
%TO.P,J1,B7,B7*%
%TO.N,/Headstage Interface/E17*%
X158635000Y-104620000D03*
%TO.P,J1,B8,B8*%
%TO.N,/Headstage Interface/E19*%
X158635000Y-105890000D03*
%TO.P,J1,B9,B9*%
%TO.N,/Headstage Interface/E21*%
X158635000Y-107160000D03*
%TO.P,J1,B10,B10*%
%TO.N,/Headstage Interface/E23*%
X158635000Y-108430000D03*
%TO.P,J1,C1,C1*%
%TO.N,REF*%
X157365000Y-97000000D03*
%TO.P,J1,C2,C2*%
%TO.N,unconnected-(J1-PadC2)*%
X157365000Y-98270000D03*
%TO.P,J1,C3,C3*%
%TO.N,unconnected-(J1-PadC3)*%
X157365000Y-99540000D03*
%TO.P,J1,C4,C4*%
%TO.N,unconnected-(J1-PadC4)*%
X157365000Y-100810000D03*
%TO.P,J1,C5,C5*%
%TO.N,/Headstage Interface/E4*%
X157365000Y-102080000D03*
%TO.P,J1,C6,C6*%
%TO.N,/Headstage Interface/E6*%
X157365000Y-103350000D03*
%TO.P,J1,C7,C7*%
%TO.N,/Headstage Interface/E8*%
X157365000Y-104620000D03*
%TO.P,J1,C8,C8*%
%TO.N,/Headstage Interface/E10*%
X157365000Y-105890000D03*
%TO.P,J1,C9,C9*%
%TO.N,/Headstage Interface/E12*%
X157365000Y-107160000D03*
%TO.P,J1,C10,C10*%
%TO.N,/Headstage Interface/E14*%
X157365000Y-108430000D03*
%TO.P,J1,D1,D1*%
%TO.N,/Headstage Interface/E0*%
X156095000Y-97000000D03*
%TO.P,J1,D2,D2*%
%TO.N,/Headstage Interface/E1*%
X156095000Y-98270000D03*
%TO.P,J1,D3,D3*%
%TO.N,/Headstage Interface/E2*%
X156095000Y-99540000D03*
%TO.P,J1,D4,D4*%
%TO.N,/Headstage Interface/E3*%
X156095000Y-100810000D03*
%TO.P,J1,D5,D5*%
%TO.N,/Headstage Interface/E5*%
X156095000Y-102080000D03*
%TO.P,J1,D6,D6*%
%TO.N,/Headstage Interface/E7*%
X156095000Y-103350000D03*
%TO.P,J1,D7,D7*%
%TO.N,/Headstage Interface/E9*%
X156095000Y-104620000D03*
%TO.P,J1,D8,D8*%
%TO.N,/Headstage Interface/E11*%
X156095000Y-105890000D03*
%TO.P,J1,D9,D9*%
%TO.N,/Headstage Interface/E13*%
X156095000Y-107160000D03*
%TO.P,J1,D10,D10*%
%TO.N,/Headstage Interface/E15*%
X156095000Y-108430000D03*
%TD*%
D11*
%TO.P,R1,1*%
%TO.N,VCC*%
X121390000Y-121100000D03*
%TO.P,R1,2*%
%TO.N,/Test Signal Interface/WP*%
X122410000Y-121100000D03*
%TD*%
D14*
%TO.P,U1,1,A0*%
%TO.N,GND*%
X121295000Y-128175000D03*
%TO.P,U1,2,A1*%
X122565000Y-128175000D03*
%TO.P,U1,3,A2*%
X123835000Y-128175000D03*
%TO.P,U1,4,GND*%
X125105000Y-128175000D03*
%TO.P,U1,5,SDA*%
%TO.N,/Test Signal Interface/SDA*%
X125105000Y-123225000D03*
%TO.P,U1,6,SCL*%
%TO.N,/Test Signal Interface/SCL*%
X123835000Y-123225000D03*
%TO.P,U1,7,WP*%
%TO.N,/Test Signal Interface/WP*%
X122565000Y-123225000D03*
%TO.P,U1,8,VCC*%
%TO.N,VCC*%
X121295000Y-123225000D03*
%TD*%
D11*
%TO.P,R3,1*%
%TO.N,VCC*%
X124090000Y-118800000D03*
%TO.P,R3,2*%
%TO.N,/Test Signal Interface/SDA*%
X125110000Y-118800000D03*
%TD*%
D12*
%TO.P,J2,A1,A1*%
%TO.N,/Headstage Interface/E56*%
X159905000Y-114000000D03*
D13*
%TO.P,J2,A2,A2*%
%TO.N,/Headstage Interface/E57*%
X159905000Y-115270000D03*
%TO.P,J2,A3,A3*%
%TO.N,/Headstage Interface/E58*%
X159905000Y-116540000D03*
%TO.P,J2,A4,A4*%
%TO.N,/Headstage Interface/E59*%
X159905000Y-117810000D03*
%TO.P,J2,A5,A5*%
%TO.N,/Headstage Interface/E60*%
X159905000Y-119080000D03*
%TO.P,J2,A6,A6*%
%TO.N,/Headstage Interface/E62*%
X159905000Y-120350000D03*
%TO.P,J2,A7,A7*%
%TO.N,/Headstage Interface/E48*%
X159905000Y-121620000D03*
%TO.P,J2,A8,A8*%
%TO.N,/Headstage Interface/E50*%
X159905000Y-122890000D03*
%TO.P,J2,A9,A9*%
%TO.N,/Headstage Interface/E52*%
X159905000Y-124160000D03*
%TO.P,J2,A10,A10*%
%TO.N,/Headstage Interface/E54*%
X159905000Y-125430000D03*
%TO.P,J2,B1,B1*%
%TO.N,REF*%
X158635000Y-114000000D03*
%TO.P,J2,B2,B2*%
%TO.N,unconnected-(J2-PadB2)*%
X158635000Y-115270000D03*
%TO.P,J2,B3,B3*%
%TO.N,unconnected-(J2-PadB3)*%
X158635000Y-116540000D03*
%TO.P,J2,B4,B4*%
%TO.N,unconnected-(J2-PadB4)*%
X158635000Y-117810000D03*
%TO.P,J2,B5,B5*%
%TO.N,/Headstage Interface/E61*%
X158635000Y-119080000D03*
%TO.P,J2,B6,B6*%
%TO.N,/Headstage Interface/E63*%
X158635000Y-120350000D03*
%TO.P,J2,B7,B7*%
%TO.N,/Headstage Interface/E49*%
X158635000Y-121620000D03*
%TO.P,J2,B8,B8*%
%TO.N,/Headstage Interface/E51*%
X158635000Y-122890000D03*
%TO.P,J2,B9,B9*%
%TO.N,/Headstage Interface/E53*%
X158635000Y-124160000D03*
%TO.P,J2,B10,B10*%
%TO.N,/Headstage Interface/E55*%
X158635000Y-125430000D03*
%TO.P,J2,C1,C1*%
%TO.N,REF*%
X157365000Y-114000000D03*
%TO.P,J2,C2,C2*%
%TO.N,unconnected-(J2-PadC2)*%
X157365000Y-115270000D03*
%TO.P,J2,C3,C3*%
%TO.N,unconnected-(J2-PadC3)*%
X157365000Y-116540000D03*
%TO.P,J2,C4,C4*%
%TO.N,unconnected-(J2-PadC4)*%
X157365000Y-117810000D03*
%TO.P,J2,C5,C5*%
%TO.N,/Headstage Interface/E36*%
X157365000Y-119080000D03*
%TO.P,J2,C6,C6*%
%TO.N,/Headstage Interface/E38*%
X157365000Y-120350000D03*
%TO.P,J2,C7,C7*%
%TO.N,/Headstage Interface/E40*%
X157365000Y-121620000D03*
%TO.P,J2,C8,C8*%
%TO.N,/Headstage Interface/E42*%
X157365000Y-122890000D03*
%TO.P,J2,C9,C9*%
%TO.N,/Headstage Interface/E44*%
X157365000Y-124160000D03*
%TO.P,J2,C10,C10*%
%TO.N,/Headstage Interface/E46*%
X157365000Y-125430000D03*
%TO.P,J2,D1,D1*%
%TO.N,/Headstage Interface/E32*%
X156095000Y-114000000D03*
%TO.P,J2,D2,D2*%
%TO.N,/Headstage Interface/E33*%
X156095000Y-115270000D03*
%TO.P,J2,D3,D3*%
%TO.N,/Headstage Interface/E34*%
X156095000Y-116540000D03*
%TO.P,J2,D4,D4*%
%TO.N,/Headstage Interface/E35*%
X156095000Y-117810000D03*
%TO.P,J2,D5,D5*%
%TO.N,/Headstage Interface/E37*%
X156095000Y-119080000D03*
%TO.P,J2,D6,D6*%
%TO.N,/Headstage Interface/E39*%
X156095000Y-120350000D03*
%TO.P,J2,D7,D7*%
%TO.N,/Headstage Interface/E41*%
X156095000Y-121620000D03*
%TO.P,J2,D8,D8*%
%TO.N,/Headstage Interface/E43*%
X156095000Y-122890000D03*
%TO.P,J2,D9,D9*%
%TO.N,/Headstage Interface/E45*%
X156095000Y-124160000D03*
%TO.P,J2,D10,D10*%
%TO.N,/Headstage Interface/E47*%
X156095000Y-125430000D03*
%TD*%
D15*
%TO.P,C1,1*%
%TO.N,VCC*%
X119700000Y-125220000D03*
%TO.P,C1,2*%
%TO.N,GND*%
X119700000Y-126180000D03*
%TD*%
D16*
%TO.N,GND*%
X150200000Y-111000000D03*
X201725000Y-119470000D03*
X171200000Y-117000000D03*
X113500000Y-81700000D03*
X177100000Y-92500000D03*
X128900000Y-99600000D03*
X113269807Y-112500000D03*
X133600000Y-117000000D03*
X165700000Y-103000000D03*
X161400000Y-132300000D03*
X135000000Y-80800000D03*
X138400000Y-123300000D03*
X162500000Y-90500000D03*
X148400000Y-81100000D03*
X135300000Y-107500000D03*
X180700000Y-107500000D03*
X113800000Y-133900000D03*
X145200000Y-107600000D03*
X187000000Y-107000000D03*
X179700000Y-132600000D03*
X203200000Y-107500000D03*
X138900000Y-92500000D03*
X177600000Y-123300000D03*
X165800000Y-111000000D03*
X150300000Y-103000000D03*
X139000000Y-101400000D03*
X160800000Y-109700000D03*
X128900000Y-133600000D03*
X144800000Y-117000000D03*
X170800000Y-107600000D03*
X113100000Y-94400000D03*
X165100000Y-120000000D03*
X203000000Y-80900000D03*
X154400000Y-111100000D03*
X193900000Y-134700000D03*
X154900000Y-92600000D03*
X163400000Y-102900000D03*
X202900000Y-91100000D03*
X129000000Y-107000000D03*
X129000000Y-92400000D03*
X150900000Y-120000000D03*
X184900000Y-80200000D03*
X174067445Y-80221652D03*
X150700000Y-129400000D03*
X187000000Y-92400000D03*
X141900000Y-133000000D03*
X182400000Y-117000000D03*
X177000000Y-101400000D03*
%TO.N,VCC*%
X120800000Y-121000000D03*
X123450000Y-118350000D03*
X119700000Y-123700000D03*
X122200000Y-119600000D03*
%TO.N,/Test Signal Interface/SDA*%
X125863500Y-116536500D03*
X125100000Y-120900000D03*
X125100000Y-119700000D03*
%TO.N,/Test Signal Interface/SCL*%
X127700000Y-115400000D03*
%TO.N,/Test Signal Interface/WP*%
X118100000Y-116100000D03*
%TO.N,REF*%
X161700000Y-126300000D03*
X161700000Y-112900000D03*
X194300000Y-122100000D03*
X161700000Y-110000000D03*
%TD*%
D17*
%TO.N,VCC*%
X119700000Y-125220000D02*
X119700000Y-123700000D01*
D18*
X122600000Y-120000000D02*
X122200000Y-119600000D01*
X120900000Y-121100000D02*
X120800000Y-121000000D01*
X121390000Y-121100000D02*
X120900000Y-121100000D01*
D19*
X123900000Y-118800000D02*
X123450000Y-118350000D01*
D17*
X120175000Y-123225000D02*
X119700000Y-123700000D01*
X121295000Y-123225000D02*
X120175000Y-123225000D01*
D18*
%TO.N,/Test Signal Interface/SDA*%
X125863500Y-116536500D02*
X125863500Y-118436500D01*
X125863500Y-118436500D02*
X125500000Y-118800000D01*
X125110000Y-119390000D02*
X125110000Y-118800000D01*
X125100000Y-119400000D02*
X125110000Y-119390000D01*
X125105000Y-123225000D02*
X125105000Y-120905000D01*
X125100000Y-119700000D02*
X125100000Y-119400000D01*
X125500000Y-118800000D02*
X125110000Y-118800000D01*
X125105000Y-120905000D02*
X125100000Y-120900000D01*
%TO.N,/Test Signal Interface/SCL*%
X123910000Y-120200000D02*
X123710000Y-120000000D01*
X123835000Y-123225000D02*
X123835000Y-120125000D01*
X127700000Y-115400000D02*
X127700000Y-118200000D01*
X125700000Y-120200000D02*
X123910000Y-120200000D01*
X127700000Y-118200000D02*
X125700000Y-120200000D01*
%TO.N,/Test Signal Interface/WP*%
X121510000Y-120200000D02*
X122410000Y-121100000D01*
X118100000Y-118000000D02*
X120300000Y-120200000D01*
X118100000Y-116100000D02*
X118100000Y-118000000D01*
X122565000Y-123225000D02*
X122565000Y-121255000D01*
X120300000Y-120200000D02*
X121510000Y-120200000D01*
D17*
%TO.N,REF*%
X159400000Y-95800000D02*
X158635000Y-96565000D01*
X158635000Y-97000000D02*
X157365000Y-97000000D01*
X160700000Y-95800000D02*
X159400000Y-95800000D01*
X194300000Y-122100000D02*
X194300000Y-122055000D01*
X194300000Y-122055000D02*
X195525000Y-120830000D01*
X161700000Y-126300000D02*
X161700000Y-112900000D01*
X161700000Y-96800000D02*
X160700000Y-95800000D01*
X194300000Y-122145000D02*
X195525000Y-123370000D01*
X194300000Y-122100000D02*
X194300000Y-122145000D01*
X158635000Y-96565000D02*
X158635000Y-97000000D01*
X161700000Y-110000000D02*
X161700000Y-96800000D01*
%TD*%
%TA.AperFunction,Conductor*%
%TO.N,GND*%
G36*
X205002065Y-77200615D02*
G01*
X205309309Y-77217870D01*
X205317543Y-77218799D01*
X205618855Y-77269993D01*
X205626923Y-77271834D01*
X205920633Y-77356451D01*
X205928447Y-77359185D01*
X206210817Y-77476147D01*
X206218293Y-77479747D01*
X206485784Y-77627584D01*
X206492808Y-77631997D01*
X206742086Y-77808869D01*
X206748554Y-77814028D01*
X206901670Y-77950862D01*
X206976446Y-78017686D01*
X206982313Y-78023553D01*
X207065033Y-78116116D01*
X207185969Y-78251443D01*
X207191132Y-78257915D01*
X207346337Y-78476657D01*
X207368000Y-78507188D01*
X207372415Y-78514215D01*
X207520252Y-78781706D01*
X207523852Y-78789182D01*
X207640810Y-79071543D01*
X207643551Y-79079376D01*
X207728162Y-79373065D01*
X207730008Y-79381156D01*
X207781199Y-79682450D01*
X207782129Y-79690696D01*
X207799384Y-79997934D01*
X207799500Y-80002083D01*
X207799500Y-133997916D01*
X207799384Y-134002065D01*
X207782129Y-134309303D01*
X207781199Y-134317549D01*
X207730008Y-134618843D01*
X207728162Y-134626934D01*
X207643551Y-134920623D01*
X207640810Y-134928456D01*
X207523852Y-135210817D01*
X207520252Y-135218293D01*
X207372415Y-135485784D01*
X207368000Y-135492811D01*
X207191138Y-135742076D01*
X207185963Y-135748564D01*
X206982313Y-135976446D01*
X206976446Y-135982313D01*
X206748564Y-136185963D01*
X206742076Y-136191138D01*
X206492811Y-136368000D01*
X206485784Y-136372415D01*
X206218293Y-136520252D01*
X206210817Y-136523852D01*
X205928456Y-136640810D01*
X205920623Y-136643551D01*
X205626934Y-136728162D01*
X205618843Y-136730008D01*
X205317549Y-136781199D01*
X205309303Y-136782129D01*
X205002066Y-136799384D01*
X204997917Y-136799500D01*
X111002083Y-136799500D01*
X110997934Y-136799384D01*
X110690696Y-136782129D01*
X110682450Y-136781199D01*
X110381156Y-136730008D01*
X110373065Y-136728162D01*
X110079376Y-136643551D01*
X110071543Y-136640810D01*
X109789182Y-136523852D01*
X109781706Y-136520252D01*
X109514215Y-136372415D01*
X109507188Y-136368000D01*
X109363715Y-136266201D01*
X109257915Y-136191132D01*
X109251443Y-136185969D01*
X109062260Y-136016904D01*
X109023553Y-135982313D01*
X109017686Y-135976446D01*
X108950862Y-135901670D01*
X108814028Y-135748554D01*
X108808869Y-135742086D01*
X108631997Y-135492808D01*
X108627584Y-135485784D01*
X108610565Y-135454991D01*
X108479747Y-135218293D01*
X108476147Y-135210817D01*
X108450347Y-135148531D01*
X108359185Y-134928447D01*
X108356451Y-134920633D01*
X108271834Y-134626923D01*
X108269993Y-134618855D01*
X108218799Y-134317543D01*
X108217870Y-134309303D01*
X108200616Y-134002065D01*
X108200500Y-133997916D01*
X108200500Y-129054205D01*
X120695001Y-129054205D01*
X120697850Y-129084602D01*
X120697852Y-129084611D01*
X120742652Y-129212643D01*
X120823207Y-129321791D01*
X120823208Y-129321792D01*
X120932356Y-129402347D01*
X120932355Y-129402347D01*
X121060385Y-129447146D01*
X121060393Y-129447148D01*
X121090803Y-129449999D01*
X121195000Y-129449999D01*
X121395000Y-129449999D01*
X121499194Y-129449999D01*
X121499205Y-129449998D01*
X121529602Y-129447149D01*
X121529611Y-129447147D01*
X121657643Y-129402347D01*
X121766791Y-129321792D01*
X121766792Y-129321791D01*
X121847345Y-129212646D01*
X121860152Y-129176047D01*
X121897892Y-129133816D01*
X121954440Y-129130639D01*
X121996671Y-129168379D01*
X121999848Y-129176047D01*
X122012654Y-129212646D01*
X122093207Y-129321791D01*
X122093208Y-129321792D01*
X122202356Y-129402347D01*
X122202355Y-129402347D01*
X122330385Y-129447146D01*
X122330393Y-129447148D01*
X122360803Y-129449999D01*
X122465000Y-129449999D01*
X122665000Y-129449999D01*
X122769194Y-129449999D01*
X122769205Y-129449998D01*
X122799602Y-129447149D01*
X122799611Y-129447147D01*
X122927643Y-129402347D01*
X123036791Y-129321792D01*
X123036792Y-129321791D01*
X123117345Y-129212646D01*
X123130152Y-129176047D01*
X123167892Y-129133816D01*
X123224440Y-129130639D01*
X123266671Y-129168379D01*
X123269848Y-129176047D01*
X123282654Y-129212646D01*
X123363207Y-129321791D01*
X123363208Y-129321792D01*
X123472356Y-129402347D01*
X123472355Y-129402347D01*
X123600385Y-129447146D01*
X123600393Y-129447148D01*
X123630803Y-129449999D01*
X123735000Y-129449999D01*
X123935000Y-129449999D01*
X124039194Y-129449999D01*
X124039205Y-129449998D01*
X124069602Y-129447149D01*
X124069611Y-129447147D01*
X124197643Y-129402347D01*
X124306791Y-129321792D01*
X124306792Y-129321791D01*
X124387345Y-129212646D01*
X124400152Y-129176047D01*
X124437892Y-129133816D01*
X124494440Y-129130639D01*
X124536671Y-129168379D01*
X124539848Y-129176047D01*
X124552654Y-129212646D01*
X124633207Y-129321791D01*
X124633208Y-129321792D01*
X124742356Y-129402347D01*
X124742355Y-129402347D01*
X124870385Y-129447146D01*
X124870393Y-129447148D01*
X124900803Y-129449999D01*
X125005000Y-129449999D01*
X125205000Y-129449999D01*
X125309194Y-129449999D01*
X125309205Y-129449998D01*
X125339602Y-129447149D01*
X125339611Y-129447147D01*
X125467643Y-129402347D01*
X125576791Y-129321792D01*
X125576792Y-129321791D01*
X125657347Y-129212643D01*
X125702146Y-129084614D01*
X125702148Y-129084606D01*
X125704999Y-129054198D01*
X125705000Y-129054197D01*
X125705000Y-128275000D01*
X125205000Y-128275000D01*
X125205000Y-129449999D01*
X125005000Y-129449999D01*
X125005000Y-128275000D01*
X124480498Y-128275000D01*
X124470001Y-128279348D01*
X124469996Y-128279345D01*
X124469991Y-128279348D01*
X124459497Y-128275000D01*
X123935000Y-128275000D01*
X123935000Y-129449999D01*
X123735000Y-129449999D01*
X123735000Y-128275000D01*
X123210498Y-128275000D01*
X123200001Y-128279348D01*
X123199996Y-128279345D01*
X123199991Y-128279348D01*
X123189497Y-128275000D01*
X122665000Y-128275000D01*
X122665000Y-129449999D01*
X122465000Y-129449999D01*
X122465000Y-128275000D01*
X121940498Y-128275000D01*
X121930001Y-128279348D01*
X121929996Y-128279345D01*
X121929991Y-128279348D01*
X121919497Y-128275000D01*
X121395000Y-128275000D01*
X121395000Y-129449999D01*
X121195000Y-129449999D01*
X121195000Y-128275000D01*
X120695001Y-128275000D01*
X120695001Y-129054205D01*
X108200500Y-129054205D01*
X108200500Y-127295801D01*
X120695000Y-127295801D01*
X120695000Y-128075000D01*
X121195000Y-128075000D01*
X121395000Y-128075000D01*
X121919494Y-128075000D01*
X121929990Y-128070651D01*
X121929994Y-128070652D01*
X121929998Y-128070651D01*
X121940498Y-128075000D01*
X122465000Y-128075000D01*
X122665000Y-128075000D01*
X123189494Y-128075000D01*
X123199990Y-128070651D01*
X123199994Y-128070652D01*
X123199998Y-128070651D01*
X123210498Y-128075000D01*
X123735000Y-128075000D01*
X123935000Y-128075000D01*
X124459494Y-128075000D01*
X124469990Y-128070651D01*
X124469994Y-128070652D01*
X124469998Y-128070651D01*
X124480498Y-128075000D01*
X125005000Y-128075000D01*
X125205000Y-128075000D01*
X125704999Y-128075000D01*
X125704999Y-127295806D01*
X125704998Y-127295794D01*
X125702149Y-127265397D01*
X125702147Y-127265388D01*
X125657347Y-127137356D01*
X125576792Y-127028208D01*
X125576791Y-127028207D01*
X125467643Y-126947652D01*
X125467644Y-126947652D01*
X125339614Y-126902853D01*
X125339606Y-126902851D01*
X125309198Y-126900000D01*
X125205000Y-126900000D01*
X125205000Y-128075000D01*
X125005000Y-128075000D01*
X125005000Y-126900000D01*
X124900806Y-126900000D01*
X124900793Y-126900001D01*
X124870397Y-126902850D01*
X124870388Y-126902852D01*
X124742356Y-126947652D01*
X124633208Y-127028207D01*
X124633207Y-127028208D01*
X124552653Y-127137355D01*
X124539847Y-127173953D01*
X124502107Y-127216184D01*
X124445559Y-127219359D01*
X124403328Y-127181619D01*
X124400153Y-127173953D01*
X124387346Y-127137355D01*
X124306792Y-127028208D01*
X124306791Y-127028207D01*
X124197643Y-126947652D01*
X124197644Y-126947652D01*
X124069614Y-126902853D01*
X124069606Y-126902851D01*
X124039198Y-126900000D01*
X123935000Y-126900000D01*
X123935000Y-128075000D01*
X123735000Y-128075000D01*
X123735000Y-126900000D01*
X123630806Y-126900000D01*
X123630793Y-126900001D01*
X123600397Y-126902850D01*
X123600388Y-126902852D01*
X123472356Y-126947652D01*
X123363208Y-127028207D01*
X123363207Y-127028208D01*
X123282653Y-127137355D01*
X123269847Y-127173953D01*
X123232107Y-127216184D01*
X123175559Y-127219359D01*
X123133328Y-127181619D01*
X123130153Y-127173953D01*
X123117346Y-127137355D01*
X123036792Y-127028208D01*
X123036791Y-127028207D01*
X122927643Y-126947652D01*
X122927644Y-126947652D01*
X122799614Y-126902853D01*
X122799606Y-126902851D01*
X122769198Y-126900000D01*
X122665000Y-126900000D01*
X122665000Y-128075000D01*
X122465000Y-128075000D01*
X122465000Y-126900000D01*
X122360806Y-126900000D01*
X122360793Y-126900001D01*
X122330397Y-126902850D01*
X122330388Y-126902852D01*
X122202356Y-126947652D01*
X122093208Y-127028207D01*
X122093207Y-127028208D01*
X122012653Y-127137355D01*
X121999847Y-127173953D01*
X121962107Y-127216184D01*
X121905559Y-127219359D01*
X121863328Y-127181619D01*
X121860153Y-127173953D01*
X121847346Y-127137355D01*
X121766792Y-127028208D01*
X121766791Y-127028207D01*
X121657643Y-126947652D01*
X121657644Y-126947652D01*
X121529614Y-126902853D01*
X121529606Y-126902851D01*
X121499198Y-126900000D01*
X121395000Y-126900000D01*
X121395000Y-128075000D01*
X121195000Y-128075000D01*
X121195000Y-126900000D01*
X121090806Y-126900000D01*
X121090793Y-126900001D01*
X121060397Y-126902850D01*
X121060388Y-126902852D01*
X120932356Y-126947652D01*
X120823208Y-127028207D01*
X120823207Y-127028208D01*
X120742652Y-127137356D01*
X120697853Y-127265385D01*
X120697851Y-127265393D01*
X120695000Y-127295801D01*
X108200500Y-127295801D01*
X108200500Y-126373007D01*
X119090001Y-126373007D01*
X119092786Y-126402721D01*
X119092787Y-126402728D01*
X119136594Y-126527919D01*
X119215358Y-126634640D01*
X119215359Y-126634641D01*
X119322080Y-126713405D01*
X119447268Y-126757211D01*
X119447273Y-126757212D01*
X119477002Y-126759999D01*
X119600000Y-126759999D01*
X119800000Y-126759999D01*
X119922993Y-126759999D01*
X119923007Y-126759998D01*
X119952721Y-126757213D01*
X119952728Y-126757212D01*
X120077919Y-126713405D01*
X120184640Y-126634641D01*
X120184641Y-126634640D01*
X120263405Y-126527919D01*
X120307211Y-126402731D01*
X120307212Y-126402726D01*
X120309999Y-126372997D01*
X120310000Y-126372996D01*
X120310000Y-126280000D01*
X119800000Y-126280000D01*
X119800000Y-126759999D01*
X119600000Y-126759999D01*
X119600000Y-126280000D01*
X119090001Y-126280000D01*
X119090001Y-126373007D01*
X108200500Y-126373007D01*
X108200500Y-125987002D01*
X119090000Y-125987002D01*
X119090000Y-126080000D01*
X120309999Y-126080000D01*
X120309999Y-125987007D01*
X120309998Y-125986992D01*
X120307213Y-125957278D01*
X120307212Y-125957271D01*
X120263405Y-125832080D01*
X120184641Y-125725359D01*
X120184640Y-125725358D01*
X120139641Y-125692147D01*
X120110410Y-125643636D01*
X120124044Y-125588664D01*
X120131252Y-125580287D01*
X120153224Y-125558316D01*
X120203972Y-125449487D01*
X120210500Y-125399901D01*
X120210499Y-125040100D01*
X120203972Y-124990513D01*
X120153224Y-124881684D01*
X120122174Y-124850634D01*
X120100500Y-124798308D01*
X120100500Y-123896545D01*
X120122174Y-123844219D01*
X120319219Y-123647174D01*
X120371545Y-123625500D01*
X120720500Y-123625500D01*
X120772826Y-123647174D01*
X120794500Y-123699500D01*
X120794500Y-124083264D01*
X120804427Y-124151393D01*
X120804427Y-124151394D01*
X120855801Y-124256482D01*
X120855802Y-124256483D01*
X120938517Y-124339198D01*
X121043607Y-124390573D01*
X121111740Y-124400500D01*
X121111746Y-124400500D01*
X121478254Y-124400500D01*
X121478260Y-124400500D01*
X121546393Y-124390573D01*
X121651483Y-124339198D01*
X121734198Y-124256483D01*
X121785573Y-124151393D01*
X121795500Y-124083260D01*
X121795500Y-122366740D01*
X121785573Y-122298607D01*
X121734198Y-122193517D01*
X121651483Y-122110802D01*
X121651482Y-122110801D01*
X121546394Y-122059427D01*
X121478264Y-122049500D01*
X121478260Y-122049500D01*
X121111740Y-122049500D01*
X121111735Y-122049500D01*
X121043606Y-122059427D01*
X121043605Y-122059427D01*
X120938517Y-122110801D01*
X120855801Y-122193517D01*
X120804427Y-122298605D01*
X120804427Y-122298606D01*
X120794500Y-122366735D01*
X120794500Y-122750500D01*
X120772826Y-122802826D01*
X120720500Y-122824500D01*
X120122271Y-122824500D01*
X120020417Y-122851791D01*
X120020408Y-122851795D01*
X119929086Y-122904520D01*
X119529275Y-123304330D01*
X119513950Y-123316090D01*
X119438739Y-123359513D01*
X119359515Y-123438736D01*
X119303499Y-123535758D01*
X119303495Y-123535767D01*
X119274500Y-123643979D01*
X119274500Y-123756020D01*
X119296978Y-123839907D01*
X119299500Y-123859060D01*
X119299500Y-124798308D01*
X119277826Y-124850634D01*
X119246776Y-124881683D01*
X119196027Y-124990514D01*
X119189500Y-125040100D01*
X119189500Y-125399899D01*
X119196027Y-125449485D01*
X119196028Y-125449487D01*
X119246776Y-125558316D01*
X119268741Y-125580281D01*
X119290415Y-125632607D01*
X119268741Y-125684933D01*
X119260359Y-125692147D01*
X119215357Y-125725360D01*
X119136594Y-125832080D01*
X119092788Y-125957268D01*
X119092787Y-125957273D01*
X119090000Y-125987002D01*
X108200500Y-125987002D01*
X108200500Y-116043979D01*
X117674500Y-116043979D01*
X117674500Y-116156020D01*
X117703495Y-116264232D01*
X117703499Y-116264241D01*
X117759515Y-116361263D01*
X117777826Y-116379574D01*
X117799500Y-116431900D01*
X117799500Y-118039564D01*
X117819977Y-118115985D01*
X117819978Y-118115986D01*
X117819979Y-118115989D01*
X117833786Y-118139903D01*
X117859540Y-118184511D01*
X120059540Y-120384511D01*
X120115489Y-120440460D01*
X120184011Y-120480021D01*
X120184012Y-120480021D01*
X120184014Y-120480022D01*
X120222224Y-120490260D01*
X120260435Y-120500499D01*
X120260436Y-120500500D01*
X120260438Y-120500500D01*
X120537987Y-120500500D01*
X120590313Y-120522174D01*
X120611987Y-120574500D01*
X120590313Y-120626826D01*
X120574987Y-120638586D01*
X120538736Y-120659515D01*
X120459515Y-120738736D01*
X120403499Y-120835758D01*
X120403495Y-120835767D01*
X120374500Y-120943979D01*
X120374500Y-121056020D01*
X120403495Y-121164232D01*
X120403499Y-121164241D01*
X120445449Y-121236900D01*
X120459515Y-121261263D01*
X120538737Y-121340485D01*
X120635763Y-121396503D01*
X120743979Y-121425499D01*
X120743980Y-121425500D01*
X120743982Y-121425500D01*
X120856018Y-121425500D01*
X120879879Y-121419106D01*
X120936030Y-121426497D01*
X120966098Y-121459309D01*
X120975935Y-121480404D01*
X121059596Y-121564065D01*
X121166827Y-121614068D01*
X121215684Y-121620500D01*
X121215686Y-121620500D01*
X121564314Y-121620500D01*
X121564316Y-121620500D01*
X121613173Y-121614068D01*
X121720404Y-121564065D01*
X121804065Y-121480404D01*
X121832933Y-121418495D01*
X121874690Y-121380232D01*
X121931273Y-121382702D01*
X121967067Y-121418496D01*
X121995933Y-121480402D01*
X121995935Y-121480404D01*
X122079596Y-121564065D01*
X122186827Y-121614068D01*
X122200158Y-121615823D01*
X122249208Y-121644141D01*
X122264500Y-121689190D01*
X122264500Y-122037239D01*
X122242826Y-122089565D01*
X122223003Y-122103719D01*
X122208517Y-122110801D01*
X122125801Y-122193517D01*
X122074427Y-122298605D01*
X122074427Y-122298606D01*
X122064500Y-122366735D01*
X122064500Y-124083264D01*
X122074427Y-124151393D01*
X122074427Y-124151394D01*
X122125801Y-124256482D01*
X122125802Y-124256483D01*
X122208517Y-124339198D01*
X122313607Y-124390573D01*
X122381740Y-124400500D01*
X122381746Y-124400500D01*
X122748254Y-124400500D01*
X122748260Y-124400500D01*
X122816393Y-124390573D01*
X122921483Y-124339198D01*
X123004198Y-124256483D01*
X123055573Y-124151393D01*
X123065500Y-124083260D01*
X123065500Y-122366740D01*
X123055573Y-122298607D01*
X123004198Y-122193517D01*
X122921483Y-122110802D01*
X122921482Y-122110801D01*
X122906997Y-122103719D01*
X122869509Y-122061264D01*
X122865500Y-122037239D01*
X122865500Y-121407952D01*
X122872432Y-121376680D01*
X122874068Y-121373173D01*
X122880500Y-121324316D01*
X122880500Y-120875684D01*
X122874068Y-120826827D01*
X122824065Y-120719596D01*
X122751295Y-120646826D01*
X122729621Y-120594500D01*
X122751295Y-120542174D01*
X122803621Y-120520500D01*
X122864314Y-120520500D01*
X122864316Y-120520500D01*
X122913173Y-120514068D01*
X123020404Y-120464065D01*
X123104065Y-120380404D01*
X123132933Y-120318495D01*
X123174690Y-120280232D01*
X123231273Y-120282702D01*
X123267067Y-120318496D01*
X123295933Y-120380402D01*
X123295935Y-120380404D01*
X123379596Y-120464065D01*
X123486827Y-120514068D01*
X123486829Y-120514068D01*
X123491774Y-120516374D01*
X123530037Y-120558131D01*
X123534500Y-120583441D01*
X123534500Y-122037239D01*
X123512826Y-122089565D01*
X123493003Y-122103719D01*
X123478517Y-122110801D01*
X123395801Y-122193517D01*
X123344427Y-122298605D01*
X123344427Y-122298606D01*
X123334500Y-122366735D01*
X123334500Y-124083264D01*
X123344427Y-124151393D01*
X123344427Y-124151394D01*
X123395801Y-124256482D01*
X123395802Y-124256483D01*
X123478517Y-124339198D01*
X123583607Y-124390573D01*
X123651740Y-124400500D01*
X123651746Y-124400500D01*
X124018254Y-124400500D01*
X124018260Y-124400500D01*
X124086393Y-124390573D01*
X124191483Y-124339198D01*
X124274198Y-124256483D01*
X124325573Y-124151393D01*
X124335500Y-124083260D01*
X124335500Y-122366740D01*
X124325573Y-122298607D01*
X124274198Y-122193517D01*
X124191483Y-122110802D01*
X124191482Y-122110801D01*
X124176997Y-122103719D01*
X124139509Y-122061264D01*
X124135500Y-122037239D01*
X124135500Y-120574500D01*
X124157174Y-120522174D01*
X124209500Y-120500500D01*
X124719100Y-120500500D01*
X124771426Y-120522174D01*
X124793100Y-120574500D01*
X124771426Y-120626826D01*
X124759515Y-120638736D01*
X124703499Y-120735758D01*
X124703495Y-120735767D01*
X124674500Y-120843979D01*
X124674500Y-120956020D01*
X124703495Y-121064232D01*
X124703499Y-121064241D01*
X124759515Y-121161263D01*
X124782826Y-121184574D01*
X124804500Y-121236900D01*
X124804500Y-122037239D01*
X124782826Y-122089565D01*
X124763003Y-122103719D01*
X124748517Y-122110801D01*
X124665801Y-122193517D01*
X124614427Y-122298605D01*
X124614427Y-122298606D01*
X124604500Y-122366735D01*
X124604500Y-124083264D01*
X124614427Y-124151393D01*
X124614427Y-124151394D01*
X124665801Y-124256482D01*
X124665802Y-124256483D01*
X124748517Y-124339198D01*
X124853607Y-124390573D01*
X124921740Y-124400500D01*
X124921746Y-124400500D01*
X125288254Y-124400500D01*
X125288260Y-124400500D01*
X125356393Y-124390573D01*
X125461483Y-124339198D01*
X125544198Y-124256483D01*
X125595573Y-124151393D01*
X125605500Y-124083260D01*
X125605500Y-122366740D01*
X125595573Y-122298607D01*
X125544198Y-122193517D01*
X125461483Y-122110802D01*
X125461482Y-122110801D01*
X125446997Y-122103719D01*
X125409509Y-122061264D01*
X125405500Y-122037239D01*
X125405500Y-121226900D01*
X125427174Y-121174574D01*
X125440485Y-121161263D01*
X125496503Y-121064237D01*
X125525499Y-120956020D01*
X125525500Y-120956020D01*
X125525500Y-120843980D01*
X125525499Y-120843979D01*
X125520903Y-120826828D01*
X125496503Y-120735763D01*
X125440485Y-120638737D01*
X125428574Y-120626826D01*
X125406900Y-120574500D01*
X125428574Y-120522174D01*
X125480900Y-120500500D01*
X125739564Y-120500500D01*
X125739564Y-120500499D01*
X125815989Y-120480021D01*
X125884511Y-120440460D01*
X125940460Y-120384511D01*
X127940460Y-118384511D01*
X127968505Y-118335935D01*
X127980021Y-118315989D01*
X128000499Y-118239564D01*
X128000500Y-118239564D01*
X128000500Y-115731900D01*
X128022174Y-115679574D01*
X128027248Y-115674500D01*
X128040485Y-115661263D01*
X128096503Y-115564237D01*
X128125500Y-115456018D01*
X128125500Y-115343982D01*
X128125500Y-115343980D01*
X128125499Y-115343979D01*
X128122183Y-115331605D01*
X128096503Y-115235763D01*
X128040485Y-115138737D01*
X127961263Y-115059515D01*
X127933542Y-115043510D01*
X127864241Y-115003499D01*
X127864232Y-115003495D01*
X127756020Y-114974500D01*
X127756018Y-114974500D01*
X127643982Y-114974500D01*
X127643980Y-114974500D01*
X127535767Y-115003495D01*
X127535758Y-115003499D01*
X127438736Y-115059515D01*
X127359515Y-115138736D01*
X127303499Y-115235758D01*
X127303495Y-115235767D01*
X127274500Y-115343979D01*
X127274500Y-115456020D01*
X127303495Y-115564232D01*
X127303499Y-115564241D01*
X127359515Y-115661263D01*
X127377826Y-115679574D01*
X127399500Y-115731900D01*
X127399500Y-118044877D01*
X127377826Y-118097203D01*
X125649953Y-119825075D01*
X125597627Y-119846749D01*
X125545301Y-119825075D01*
X125523627Y-119772749D01*
X125525191Y-119760871D01*
X125524867Y-119760829D01*
X125525500Y-119756020D01*
X125525500Y-119643980D01*
X125525499Y-119643979D01*
X125522908Y-119634311D01*
X125496503Y-119535763D01*
X125440485Y-119438737D01*
X125432174Y-119430426D01*
X125410500Y-119378100D01*
X125410500Y-119323526D01*
X125432174Y-119271200D01*
X125438975Y-119265493D01*
X125440402Y-119264065D01*
X125440404Y-119264065D01*
X125524065Y-119180404D01*
X125549849Y-119125107D01*
X125591604Y-119086845D01*
X125597746Y-119084908D01*
X125615989Y-119080021D01*
X125684511Y-119040460D01*
X125740460Y-118984511D01*
X126103960Y-118621011D01*
X126143522Y-118552488D01*
X126164000Y-118476062D01*
X126164000Y-118396938D01*
X126164000Y-116868400D01*
X126185674Y-116816074D01*
X126203985Y-116797763D01*
X126260003Y-116700737D01*
X126288999Y-116592520D01*
X126289000Y-116592520D01*
X126289000Y-116480480D01*
X126288999Y-116480479D01*
X126288440Y-116478394D01*
X126260003Y-116372263D01*
X126203985Y-116275237D01*
X126124763Y-116196015D01*
X126055490Y-116156020D01*
X126027741Y-116139999D01*
X126027732Y-116139995D01*
X125919520Y-116111000D01*
X125919518Y-116111000D01*
X125807482Y-116111000D01*
X125807480Y-116111000D01*
X125699267Y-116139995D01*
X125699258Y-116139999D01*
X125602236Y-116196015D01*
X125523015Y-116275236D01*
X125466999Y-116372258D01*
X125466995Y-116372267D01*
X125438000Y-116480479D01*
X125438000Y-116592520D01*
X125466995Y-116700732D01*
X125466999Y-116700741D01*
X125523015Y-116797763D01*
X125541326Y-116816074D01*
X125563000Y-116868400D01*
X125563000Y-118279879D01*
X125541326Y-118332205D01*
X125489000Y-118353879D01*
X125447717Y-118336779D01*
X125445708Y-118339649D01*
X125440404Y-118335935D01*
X125397630Y-118315989D01*
X125333173Y-118285932D01*
X125333171Y-118285931D01*
X125297178Y-118281193D01*
X125284316Y-118279500D01*
X124935684Y-118279500D01*
X124924318Y-118280996D01*
X124886828Y-118285931D01*
X124779595Y-118335935D01*
X124695935Y-118419595D01*
X124688519Y-118435500D01*
X124668451Y-118478537D01*
X124667067Y-118481504D01*
X124625309Y-118519767D01*
X124568726Y-118517297D01*
X124532933Y-118481504D01*
X124504065Y-118419596D01*
X124420404Y-118335935D01*
X124313173Y-118285932D01*
X124313171Y-118285931D01*
X124277178Y-118281193D01*
X124264316Y-118279500D01*
X123928402Y-118279500D01*
X123876076Y-118257826D01*
X123856924Y-118224653D01*
X123846504Y-118185766D01*
X123846502Y-118185761D01*
X123806217Y-118115986D01*
X123790485Y-118088737D01*
X123711263Y-118009515D01*
X123677630Y-117990097D01*
X123614241Y-117953499D01*
X123614232Y-117953495D01*
X123506020Y-117924500D01*
X123506018Y-117924500D01*
X123393982Y-117924500D01*
X123393980Y-117924500D01*
X123285767Y-117953495D01*
X123285758Y-117953499D01*
X123188736Y-118009515D01*
X123109515Y-118088736D01*
X123053499Y-118185758D01*
X123053495Y-118185767D01*
X123024500Y-118293979D01*
X123024500Y-118406020D01*
X123053495Y-118514232D01*
X123053499Y-118514241D01*
X123088973Y-118575684D01*
X123109515Y-118611263D01*
X123188737Y-118690485D01*
X123285763Y-118746503D01*
X123393979Y-118775499D01*
X123393980Y-118775500D01*
X123393982Y-118775500D01*
X123455232Y-118775500D01*
X123507558Y-118797174D01*
X123597826Y-118887441D01*
X123619500Y-118939767D01*
X123619500Y-119024314D01*
X123625931Y-119073171D01*
X123625932Y-119073173D01*
X123675935Y-119180404D01*
X123759596Y-119264065D01*
X123866827Y-119314068D01*
X123915684Y-119320500D01*
X123915686Y-119320500D01*
X124264314Y-119320500D01*
X124264316Y-119320500D01*
X124313173Y-119314068D01*
X124420404Y-119264065D01*
X124504065Y-119180404D01*
X124532933Y-119118495D01*
X124574690Y-119080232D01*
X124631273Y-119082702D01*
X124667067Y-119118496D01*
X124695933Y-119180402D01*
X124784174Y-119268643D01*
X124781825Y-119270991D01*
X124782549Y-119272128D01*
X124793437Y-119278926D01*
X124796040Y-119293305D01*
X124806085Y-119309073D01*
X124806199Y-119334107D01*
X124805609Y-119337635D01*
X124799500Y-119360438D01*
X124799500Y-119374234D01*
X124798490Y-119380285D01*
X124786493Y-119399499D01*
X124777826Y-119420426D01*
X124759515Y-119438736D01*
X124703499Y-119535758D01*
X124703495Y-119535767D01*
X124674500Y-119643979D01*
X124674500Y-119756020D01*
X124687985Y-119806347D01*
X124680593Y-119862500D01*
X124635660Y-119896978D01*
X124616507Y-119899500D01*
X124254500Y-119899500D01*
X124202174Y-119877826D01*
X124180500Y-119825500D01*
X124180500Y-119775685D01*
X124180114Y-119772749D01*
X124174068Y-119726827D01*
X124124065Y-119619596D01*
X124040404Y-119535935D01*
X123933173Y-119485932D01*
X123933171Y-119485931D01*
X123897178Y-119481193D01*
X123884316Y-119479500D01*
X123535684Y-119479500D01*
X123524318Y-119480996D01*
X123486828Y-119485931D01*
X123379595Y-119535935D01*
X123295935Y-119619595D01*
X123267067Y-119681504D01*
X123225309Y-119719767D01*
X123168726Y-119717297D01*
X123132933Y-119681504D01*
X123132914Y-119681463D01*
X123104065Y-119619596D01*
X123020404Y-119535935D01*
X122913173Y-119485932D01*
X122913171Y-119485931D01*
X122877178Y-119481193D01*
X122864316Y-119479500D01*
X122864314Y-119479500D01*
X122664064Y-119479500D01*
X122611738Y-119457826D01*
X122599561Y-119439598D01*
X122598928Y-119439964D01*
X122593421Y-119430426D01*
X122540485Y-119338737D01*
X122461263Y-119259515D01*
X122364241Y-119203499D01*
X122364232Y-119203495D01*
X122256020Y-119174500D01*
X122256018Y-119174500D01*
X122143982Y-119174500D01*
X122143980Y-119174500D01*
X122035767Y-119203495D01*
X122035758Y-119203499D01*
X121938736Y-119259515D01*
X121859515Y-119338736D01*
X121803499Y-119435758D01*
X121803495Y-119435767D01*
X121774500Y-119543979D01*
X121774500Y-119656020D01*
X121803495Y-119764232D01*
X121803499Y-119764241D01*
X121821655Y-119795688D01*
X121859515Y-119861263D01*
X121938737Y-119940485D01*
X122035763Y-119996503D01*
X122143979Y-120025499D01*
X122143980Y-120025500D01*
X122143982Y-120025500D01*
X122145500Y-120025500D01*
X122146208Y-120025793D01*
X122148789Y-120026133D01*
X122148697Y-120026824D01*
X122197826Y-120047174D01*
X122219500Y-120099500D01*
X122219500Y-120224314D01*
X122225931Y-120273171D01*
X122225932Y-120273173D01*
X122230375Y-120282702D01*
X122238860Y-120300896D01*
X122241330Y-120357480D01*
X122203067Y-120399237D01*
X122146483Y-120401707D01*
X122119467Y-120384496D01*
X121694511Y-119959540D01*
X121625990Y-119919979D01*
X121625985Y-119919977D01*
X121549564Y-119899500D01*
X121549562Y-119899500D01*
X120455123Y-119899500D01*
X120402797Y-119877826D01*
X118515068Y-117990097D01*
X119569500Y-117990097D01*
X119569500Y-118139902D01*
X119598723Y-118286823D01*
X119598726Y-118286834D01*
X119656051Y-118425229D01*
X119719219Y-118519767D01*
X119739281Y-118549791D01*
X119845209Y-118655719D01*
X119969768Y-118738947D01*
X119969769Y-118738947D01*
X119969770Y-118738948D01*
X120077845Y-118783714D01*
X120108170Y-118796275D01*
X120255097Y-118825500D01*
X120404903Y-118825500D01*
X120551830Y-118796275D01*
X120690232Y-118738947D01*
X120814791Y-118655719D01*
X120920719Y-118549791D01*
X121003947Y-118425232D01*
X121061275Y-118286830D01*
X121090500Y-118139903D01*
X121090500Y-117990097D01*
X121061275Y-117843170D01*
X121061273Y-117843165D01*
X121003948Y-117704770D01*
X120920721Y-117580212D01*
X120920719Y-117580209D01*
X120814791Y-117474281D01*
X120690232Y-117391053D01*
X120690231Y-117391052D01*
X120690229Y-117391051D01*
X120551834Y-117333726D01*
X120551823Y-117333723D01*
X120404903Y-117304500D01*
X120255097Y-117304500D01*
X120108176Y-117333723D01*
X120108165Y-117333726D01*
X119969770Y-117391051D01*
X119845212Y-117474278D01*
X119739278Y-117580212D01*
X119656051Y-117704770D01*
X119598726Y-117843165D01*
X119598723Y-117843176D01*
X119569500Y-117990097D01*
X118515068Y-117990097D01*
X118422174Y-117897203D01*
X118400500Y-117844877D01*
X118400500Y-116431900D01*
X118422174Y-116379574D01*
X118429490Y-116372258D01*
X118440485Y-116361263D01*
X118496503Y-116264237D01*
X118525499Y-116156020D01*
X118525500Y-116156020D01*
X118525500Y-116043980D01*
X118525499Y-116043979D01*
X118509880Y-115985689D01*
X118496503Y-115935763D01*
X118440485Y-115838737D01*
X118361263Y-115759515D01*
X118354929Y-115755858D01*
X118264241Y-115703499D01*
X118264232Y-115703495D01*
X118156020Y-115674500D01*
X118156018Y-115674500D01*
X118043982Y-115674500D01*
X118043980Y-115674500D01*
X117935767Y-115703495D01*
X117935758Y-115703499D01*
X117838736Y-115759515D01*
X117759515Y-115838736D01*
X117703499Y-115935758D01*
X117703495Y-115935767D01*
X117674500Y-116043979D01*
X108200500Y-116043979D01*
X108200500Y-113938394D01*
X155469500Y-113938394D01*
X155469500Y-114061605D01*
X155493535Y-114182445D01*
X155493537Y-114182452D01*
X155540688Y-114296285D01*
X155540689Y-114296286D01*
X155609142Y-114398733D01*
X155696267Y-114485858D01*
X155696270Y-114485860D01*
X155798714Y-114554311D01*
X155828462Y-114566633D01*
X155868510Y-114606682D01*
X155868510Y-114663319D01*
X155828462Y-114703367D01*
X155798714Y-114715688D01*
X155696270Y-114784139D01*
X155609139Y-114871270D01*
X155540688Y-114973714D01*
X155493537Y-115087547D01*
X155493535Y-115087554D01*
X155469500Y-115208394D01*
X155469500Y-115331605D01*
X155493535Y-115452445D01*
X155493537Y-115452452D01*
X155540688Y-115566285D01*
X155609139Y-115668729D01*
X155609142Y-115668733D01*
X155696267Y-115755858D01*
X155696270Y-115755860D01*
X155798714Y-115824311D01*
X155828462Y-115836633D01*
X155868510Y-115876682D01*
X155868510Y-115933319D01*
X155828462Y-115973367D01*
X155798714Y-115985688D01*
X155696270Y-116054139D01*
X155609139Y-116141270D01*
X155540688Y-116243714D01*
X155493537Y-116357547D01*
X155493535Y-116357554D01*
X155469500Y-116478394D01*
X155469500Y-116601605D01*
X155493535Y-116722445D01*
X155493537Y-116722452D01*
X155540688Y-116836285D01*
X155540689Y-116836286D01*
X155609142Y-116938733D01*
X155696267Y-117025858D01*
X155696270Y-117025860D01*
X155798714Y-117094311D01*
X155828462Y-117106633D01*
X155868510Y-117146682D01*
X155868510Y-117203319D01*
X155828462Y-117243367D01*
X155798714Y-117255688D01*
X155696270Y-117324139D01*
X155609139Y-117411270D01*
X155540688Y-117513714D01*
X155493537Y-117627547D01*
X155493535Y-117627554D01*
X155469500Y-117748394D01*
X155469500Y-117871605D01*
X155493535Y-117992445D01*
X155493537Y-117992452D01*
X155540688Y-118106285D01*
X155609139Y-118208729D01*
X155609142Y-118208733D01*
X155696267Y-118295858D01*
X155696270Y-118295860D01*
X155798714Y-118364311D01*
X155828462Y-118376633D01*
X155868510Y-118416682D01*
X155868510Y-118473319D01*
X155828462Y-118513366D01*
X155826361Y-118514237D01*
X155798714Y-118525688D01*
X155696270Y-118594139D01*
X155609139Y-118681270D01*
X155540688Y-118783714D01*
X155493537Y-118897547D01*
X155493535Y-118897554D01*
X155469500Y-119018394D01*
X155469500Y-119141605D01*
X155493535Y-119262445D01*
X155493537Y-119262452D01*
X155540688Y-119376285D01*
X155583237Y-119439964D01*
X155609142Y-119478733D01*
X155696267Y-119565858D01*
X155798714Y-119634311D01*
X155822054Y-119643979D01*
X155828462Y-119646633D01*
X155868510Y-119686682D01*
X155868510Y-119743319D01*
X155828462Y-119783367D01*
X155798714Y-119795688D01*
X155696270Y-119864139D01*
X155609139Y-119951270D01*
X155540688Y-120053714D01*
X155493537Y-120167547D01*
X155493535Y-120167554D01*
X155469500Y-120288394D01*
X155469500Y-120411605D01*
X155493535Y-120532445D01*
X155493537Y-120532452D01*
X155540688Y-120646285D01*
X155600478Y-120735767D01*
X155609142Y-120748733D01*
X155696267Y-120835858D01*
X155696270Y-120835860D01*
X155798714Y-120904311D01*
X155828462Y-120916633D01*
X155868510Y-120956682D01*
X155868510Y-121013319D01*
X155828462Y-121053367D01*
X155798714Y-121065688D01*
X155696270Y-121134139D01*
X155609139Y-121221270D01*
X155540688Y-121323714D01*
X155493537Y-121437547D01*
X155493535Y-121437554D01*
X155469500Y-121558394D01*
X155469500Y-121681605D01*
X155493535Y-121802445D01*
X155493537Y-121802452D01*
X155540688Y-121916285D01*
X155609139Y-122018729D01*
X155609142Y-122018733D01*
X155696267Y-122105858D01*
X155696270Y-122105860D01*
X155798714Y-122174311D01*
X155828462Y-122186633D01*
X155868510Y-122226682D01*
X155868510Y-122283319D01*
X155828462Y-122323367D01*
X155798714Y-122335688D01*
X155696270Y-122404139D01*
X155609139Y-122491270D01*
X155540688Y-122593714D01*
X155493537Y-122707547D01*
X155493535Y-122707554D01*
X155469500Y-122828394D01*
X155469500Y-122951605D01*
X155493535Y-123072445D01*
X155493537Y-123072452D01*
X155540688Y-123186285D01*
X155540689Y-123186286D01*
X155609142Y-123288733D01*
X155696267Y-123375858D01*
X155696270Y-123375860D01*
X155798714Y-123444311D01*
X155828462Y-123456633D01*
X155868510Y-123496682D01*
X155868510Y-123553319D01*
X155828462Y-123593367D01*
X155798714Y-123605688D01*
X155696270Y-123674139D01*
X155609139Y-123761270D01*
X155540688Y-123863714D01*
X155493537Y-123977547D01*
X155493535Y-123977554D01*
X155469500Y-124098394D01*
X155469500Y-124221605D01*
X155493535Y-124342445D01*
X155493537Y-124342452D01*
X155540688Y-124456285D01*
X155540689Y-124456286D01*
X155609142Y-124558733D01*
X155696267Y-124645858D01*
X155696270Y-124645860D01*
X155798714Y-124714311D01*
X155828462Y-124726633D01*
X155868510Y-124766682D01*
X155868510Y-124823319D01*
X155828462Y-124863367D01*
X155798714Y-124875688D01*
X155696270Y-124944139D01*
X155609139Y-125031270D01*
X155540688Y-125133714D01*
X155493537Y-125247547D01*
X155493535Y-125247554D01*
X155469500Y-125368394D01*
X155469500Y-125491605D01*
X155493535Y-125612445D01*
X155493537Y-125612452D01*
X155540688Y-125726285D01*
X155540689Y-125726286D01*
X155609142Y-125828733D01*
X155696267Y-125915858D01*
X155798714Y-125984311D01*
X155912548Y-126031463D01*
X156033394Y-126055500D01*
X156156606Y-126055500D01*
X156277452Y-126031463D01*
X156391286Y-125984311D01*
X156493733Y-125915858D01*
X156580858Y-125828733D01*
X156649311Y-125726286D01*
X156661633Y-125696537D01*
X156701681Y-125656489D01*
X156758318Y-125656489D01*
X156798366Y-125696536D01*
X156798367Y-125696538D01*
X156810687Y-125726283D01*
X156810688Y-125726285D01*
X156810689Y-125726286D01*
X156879142Y-125828733D01*
X156966267Y-125915858D01*
X157068714Y-125984311D01*
X157182548Y-126031463D01*
X157303394Y-126055500D01*
X157426606Y-126055500D01*
X157547452Y-126031463D01*
X157661286Y-125984311D01*
X157763733Y-125915858D01*
X157850858Y-125828733D01*
X157919311Y-125726286D01*
X157931633Y-125696537D01*
X157971681Y-125656489D01*
X158028318Y-125656489D01*
X158068366Y-125696536D01*
X158068367Y-125696538D01*
X158080687Y-125726283D01*
X158080688Y-125726285D01*
X158080689Y-125726286D01*
X158149142Y-125828733D01*
X158236267Y-125915858D01*
X158338714Y-125984311D01*
X158452548Y-126031463D01*
X158573394Y-126055500D01*
X158696606Y-126055500D01*
X158817452Y-126031463D01*
X158931286Y-125984311D01*
X159033733Y-125915858D01*
X159120858Y-125828733D01*
X159189311Y-125726286D01*
X159201633Y-125696537D01*
X159241681Y-125656489D01*
X159298318Y-125656489D01*
X159338366Y-125696536D01*
X159338367Y-125696538D01*
X159350687Y-125726283D01*
X159350688Y-125726285D01*
X159350689Y-125726286D01*
X159419142Y-125828733D01*
X159506267Y-125915858D01*
X159608714Y-125984311D01*
X159722548Y-126031463D01*
X159843394Y-126055500D01*
X159966606Y-126055500D01*
X160087452Y-126031463D01*
X160201286Y-125984311D01*
X160303733Y-125915858D01*
X160390858Y-125828733D01*
X160459311Y-125726286D01*
X160506463Y-125612452D01*
X160530500Y-125491606D01*
X160530500Y-125368394D01*
X160506463Y-125247548D01*
X160459311Y-125133714D01*
X160390858Y-125031267D01*
X160303733Y-124944142D01*
X160201286Y-124875689D01*
X160201285Y-124875688D01*
X160201283Y-124875687D01*
X160171538Y-124863367D01*
X160131489Y-124823319D01*
X160131489Y-124766682D01*
X160171536Y-124726633D01*
X160201286Y-124714311D01*
X160303733Y-124645858D01*
X160390858Y-124558733D01*
X160459311Y-124456286D01*
X160506463Y-124342452D01*
X160530500Y-124221606D01*
X160530500Y-124098394D01*
X160506463Y-123977548D01*
X160459311Y-123863714D01*
X160390858Y-123761267D01*
X160303733Y-123674142D01*
X160258595Y-123643982D01*
X160201283Y-123605687D01*
X160171538Y-123593367D01*
X160131489Y-123553319D01*
X160131489Y-123496682D01*
X160171536Y-123456633D01*
X160201286Y-123444311D01*
X160303733Y-123375858D01*
X160390858Y-123288733D01*
X160459311Y-123186286D01*
X160506463Y-123072452D01*
X160530500Y-122951606D01*
X160530500Y-122828394D01*
X160506463Y-122707548D01*
X160459311Y-122593714D01*
X160390858Y-122491267D01*
X160303733Y-122404142D01*
X160283934Y-122390913D01*
X160201283Y-122335687D01*
X160171538Y-122323367D01*
X160131489Y-122283319D01*
X160131489Y-122226682D01*
X160171536Y-122186633D01*
X160201286Y-122174311D01*
X160303733Y-122105858D01*
X160390858Y-122018733D01*
X160459311Y-121916286D01*
X160506463Y-121802452D01*
X160530500Y-121681606D01*
X160530500Y-121558394D01*
X160506463Y-121437548D01*
X160459311Y-121323714D01*
X160390858Y-121221267D01*
X160303733Y-121134142D01*
X160201286Y-121065689D01*
X160201285Y-121065688D01*
X160201283Y-121065687D01*
X160175983Y-121055208D01*
X160171537Y-121053366D01*
X160131489Y-121013319D01*
X160131489Y-120956682D01*
X160171536Y-120916633D01*
X160201286Y-120904311D01*
X160303733Y-120835858D01*
X160390858Y-120748733D01*
X160459311Y-120646286D01*
X160506463Y-120532452D01*
X160530500Y-120411606D01*
X160530500Y-120288394D01*
X160506463Y-120167548D01*
X160459311Y-120053714D01*
X160390858Y-119951267D01*
X160303733Y-119864142D01*
X160299424Y-119861263D01*
X160201283Y-119795687D01*
X160171538Y-119783367D01*
X160131489Y-119743319D01*
X160131489Y-119686682D01*
X160171536Y-119646633D01*
X160201286Y-119634311D01*
X160303733Y-119565858D01*
X160390858Y-119478733D01*
X160459311Y-119376286D01*
X160506463Y-119262452D01*
X160530500Y-119141606D01*
X160530500Y-119018394D01*
X160506463Y-118897548D01*
X160459311Y-118783714D01*
X160390858Y-118681267D01*
X160303733Y-118594142D01*
X160241399Y-118552492D01*
X160201283Y-118525687D01*
X160173648Y-118514241D01*
X160171537Y-118513366D01*
X160131489Y-118473319D01*
X160131489Y-118416682D01*
X160171536Y-118376633D01*
X160201286Y-118364311D01*
X160303733Y-118295858D01*
X160390858Y-118208733D01*
X160459311Y-118106286D01*
X160506463Y-117992452D01*
X160530500Y-117871606D01*
X160530500Y-117748394D01*
X160506463Y-117627548D01*
X160459311Y-117513714D01*
X160390858Y-117411267D01*
X160303733Y-117324142D01*
X160201286Y-117255689D01*
X160201285Y-117255688D01*
X160201283Y-117255687D01*
X160171538Y-117243367D01*
X160131489Y-117203319D01*
X160131489Y-117146682D01*
X160171536Y-117106633D01*
X160201286Y-117094311D01*
X160303733Y-117025858D01*
X160390858Y-116938733D01*
X160459311Y-116836286D01*
X160506463Y-116722452D01*
X160530500Y-116601606D01*
X160530500Y-116478394D01*
X160506463Y-116357548D01*
X160459311Y-116243714D01*
X160390858Y-116141267D01*
X160303733Y-116054142D01*
X160201286Y-115985689D01*
X160201285Y-115985688D01*
X160201283Y-115985687D01*
X160171538Y-115973367D01*
X160131489Y-115933319D01*
X160131489Y-115876682D01*
X160171536Y-115836633D01*
X160201286Y-115824311D01*
X160303733Y-115755858D01*
X160390858Y-115668733D01*
X160459311Y-115566286D01*
X160506463Y-115452452D01*
X160530500Y-115331606D01*
X160530500Y-115208394D01*
X160506463Y-115087548D01*
X160459311Y-114973714D01*
X160390858Y-114871267D01*
X160303733Y-114784142D01*
X160269141Y-114761028D01*
X160237676Y-114713937D01*
X160248725Y-114658388D01*
X160295817Y-114626922D01*
X160310254Y-114625500D01*
X160349746Y-114625500D01*
X160349748Y-114625500D01*
X160408231Y-114613867D01*
X160474552Y-114569552D01*
X160518867Y-114503231D01*
X160530500Y-114444748D01*
X160530500Y-113555252D01*
X160518867Y-113496769D01*
X160474552Y-113430448D01*
X160426792Y-113398535D01*
X160408232Y-113386133D01*
X160408233Y-113386133D01*
X160378989Y-113380316D01*
X160349748Y-113374500D01*
X159460252Y-113374500D01*
X159431010Y-113380316D01*
X159401767Y-113386133D01*
X159335449Y-113430447D01*
X159335447Y-113430449D01*
X159291133Y-113496767D01*
X159279500Y-113555253D01*
X159279500Y-113594746D01*
X159257826Y-113647072D01*
X159205500Y-113668746D01*
X159153174Y-113647072D01*
X159143971Y-113635858D01*
X159120860Y-113601270D01*
X159120858Y-113601267D01*
X159033733Y-113514142D01*
X158931286Y-113445689D01*
X158931287Y-113445689D01*
X158931285Y-113445688D01*
X158817452Y-113398537D01*
X158817445Y-113398535D01*
X158696606Y-113374500D01*
X158573394Y-113374500D01*
X158452554Y-113398535D01*
X158452547Y-113398537D01*
X158338714Y-113445688D01*
X158236270Y-113514139D01*
X158149139Y-113601270D01*
X158080688Y-113703714D01*
X158068367Y-113733462D01*
X158028318Y-113773510D01*
X157971681Y-113773510D01*
X157931633Y-113733462D01*
X157919311Y-113703714D01*
X157850860Y-113601270D01*
X157850858Y-113601267D01*
X157763733Y-113514142D01*
X157661286Y-113445689D01*
X157661287Y-113445689D01*
X157661285Y-113445688D01*
X157547452Y-113398537D01*
X157547445Y-113398535D01*
X157426606Y-113374500D01*
X157303394Y-113374500D01*
X157182554Y-113398535D01*
X157182547Y-113398537D01*
X157068714Y-113445688D01*
X156966270Y-113514139D01*
X156879139Y-113601270D01*
X156810688Y-113703714D01*
X156798367Y-113733462D01*
X156758318Y-113773510D01*
X156701681Y-113773510D01*
X156661633Y-113733462D01*
X156649311Y-113703714D01*
X156580860Y-113601270D01*
X156580858Y-113601267D01*
X156493733Y-113514142D01*
X156391286Y-113445689D01*
X156391287Y-113445689D01*
X156391285Y-113445688D01*
X156277452Y-113398537D01*
X156277445Y-113398535D01*
X156156606Y-113374500D01*
X156033394Y-113374500D01*
X155912554Y-113398535D01*
X155912547Y-113398537D01*
X155798714Y-113445688D01*
X155696270Y-113514139D01*
X155609139Y-113601270D01*
X155540688Y-113703714D01*
X155493537Y-113817547D01*
X155493535Y-113817554D01*
X155469500Y-113938394D01*
X108200500Y-113938394D01*
X108200500Y-112843979D01*
X161274500Y-112843979D01*
X161274500Y-112956020D01*
X161296978Y-113039907D01*
X161299500Y-113059060D01*
X161299500Y-126140936D01*
X161296979Y-126160088D01*
X161274500Y-126243982D01*
X161274500Y-126356020D01*
X161303495Y-126464232D01*
X161303496Y-126464235D01*
X161303497Y-126464237D01*
X161359515Y-126561263D01*
X161438737Y-126640485D01*
X161535763Y-126696503D01*
X161643979Y-126725499D01*
X161643980Y-126725500D01*
X161643982Y-126725500D01*
X161756020Y-126725500D01*
X161756020Y-126725499D01*
X161864237Y-126696503D01*
X161961263Y-126640485D01*
X162040485Y-126561263D01*
X162096503Y-126464237D01*
X162125499Y-126356020D01*
X162125500Y-126356020D01*
X162125500Y-126243982D01*
X162103021Y-126160088D01*
X162100500Y-126140936D01*
X162100500Y-123914792D01*
X188600001Y-123914792D01*
X188602908Y-123939868D01*
X188602910Y-123939874D01*
X188648213Y-124042478D01*
X188727521Y-124121786D01*
X188830124Y-124167089D01*
X188830123Y-124167089D01*
X188855210Y-124169999D01*
X190375000Y-124169999D01*
X190575000Y-124169999D01*
X192094792Y-124169999D01*
X192119868Y-124167091D01*
X192119874Y-124167089D01*
X192222478Y-124121786D01*
X192301786Y-124042478D01*
X192347089Y-123939875D01*
X192350000Y-123914789D01*
X192350000Y-123470000D01*
X190575000Y-123470000D01*
X190575000Y-124169999D01*
X190375000Y-124169999D01*
X190375000Y-123470000D01*
X188600001Y-123470000D01*
X188600001Y-123914792D01*
X162100500Y-123914792D01*
X162100500Y-122825210D01*
X188600000Y-122825210D01*
X188600000Y-123270000D01*
X190375000Y-123270000D01*
X190575000Y-123270000D01*
X192349999Y-123270000D01*
X192349999Y-122825207D01*
X192347091Y-122800131D01*
X192347089Y-122800125D01*
X192301786Y-122697521D01*
X192222478Y-122618213D01*
X192119875Y-122572910D01*
X192119876Y-122572910D01*
X192094789Y-122570000D01*
X190575000Y-122570000D01*
X190575000Y-123270000D01*
X190375000Y-123270000D01*
X190375000Y-122570000D01*
X188855207Y-122570000D01*
X188830131Y-122572908D01*
X188830125Y-122572910D01*
X188727521Y-122618213D01*
X188648213Y-122697521D01*
X188602910Y-122800124D01*
X188600000Y-122825210D01*
X162100500Y-122825210D01*
X162100500Y-121374792D01*
X188600001Y-121374792D01*
X188602908Y-121399868D01*
X188602910Y-121399874D01*
X188648213Y-121502478D01*
X188727521Y-121581786D01*
X188830124Y-121627089D01*
X188830123Y-121627089D01*
X188855210Y-121629999D01*
X190375000Y-121629999D01*
X190575000Y-121629999D01*
X192094792Y-121629999D01*
X192119868Y-121627091D01*
X192119874Y-121627089D01*
X192222478Y-121581786D01*
X192301786Y-121502478D01*
X192347089Y-121399875D01*
X192350000Y-121374789D01*
X192350000Y-120930000D01*
X190575000Y-120930000D01*
X190575000Y-121629999D01*
X190375000Y-121629999D01*
X190375000Y-120930000D01*
X188600001Y-120930000D01*
X188600001Y-121374792D01*
X162100500Y-121374792D01*
X162100500Y-120285210D01*
X188600000Y-120285210D01*
X188600000Y-120730000D01*
X190375000Y-120730000D01*
X190575000Y-120730000D01*
X192349999Y-120730000D01*
X192349999Y-120310253D01*
X193749500Y-120310253D01*
X193749500Y-121349746D01*
X193761133Y-121408232D01*
X193780722Y-121437548D01*
X193805448Y-121474552D01*
X193847242Y-121502478D01*
X193871767Y-121518866D01*
X193871768Y-121518866D01*
X193871769Y-121518867D01*
X193930252Y-121530500D01*
X194079455Y-121530500D01*
X194131781Y-121552174D01*
X194153455Y-121604500D01*
X194131781Y-121656826D01*
X193979519Y-121809087D01*
X193979518Y-121809089D01*
X193971210Y-121823477D01*
X193962460Y-121834881D01*
X193962468Y-121834888D01*
X193959517Y-121838733D01*
X193903499Y-121935759D01*
X193903495Y-121935767D01*
X193874500Y-122043979D01*
X193874500Y-122156020D01*
X193903495Y-122264232D01*
X193903499Y-122264241D01*
X193959516Y-122361265D01*
X193962468Y-122365112D01*
X193962459Y-122365118D01*
X193971212Y-122376524D01*
X193979520Y-122390913D01*
X194079874Y-122491267D01*
X194131781Y-122543174D01*
X194153455Y-122595500D01*
X194131781Y-122647826D01*
X194079455Y-122669500D01*
X193930252Y-122669500D01*
X193901010Y-122675316D01*
X193871767Y-122681133D01*
X193805449Y-122725447D01*
X193805447Y-122725449D01*
X193761133Y-122791767D01*
X193749500Y-122850253D01*
X193749500Y-123889746D01*
X193761133Y-123948232D01*
X193780722Y-123977548D01*
X193805448Y-124014552D01*
X193847242Y-124042478D01*
X193871767Y-124058866D01*
X193871768Y-124058866D01*
X193871769Y-124058867D01*
X193930252Y-124070500D01*
X193930254Y-124070500D01*
X197119746Y-124070500D01*
X197119748Y-124070500D01*
X197178231Y-124058867D01*
X197244552Y-124014552D01*
X197288867Y-123948231D01*
X197300500Y-123889748D01*
X197300500Y-122850252D01*
X197288867Y-122791769D01*
X197244552Y-122725448D01*
X197202757Y-122697521D01*
X197178232Y-122681133D01*
X197178233Y-122681133D01*
X197148989Y-122675316D01*
X197119748Y-122669500D01*
X197119746Y-122669500D01*
X195421544Y-122669500D01*
X195369218Y-122647826D01*
X194873718Y-122152326D01*
X194852044Y-122100000D01*
X194873718Y-122047674D01*
X195369218Y-121552174D01*
X195421544Y-121530500D01*
X197119746Y-121530500D01*
X197119748Y-121530500D01*
X197178231Y-121518867D01*
X197244552Y-121474552D01*
X197288867Y-121408231D01*
X197300500Y-121349748D01*
X197300500Y-120310252D01*
X197288867Y-120251769D01*
X197244552Y-120185448D01*
X197202757Y-120157521D01*
X197178232Y-120141133D01*
X197178233Y-120141133D01*
X197148989Y-120135316D01*
X197119748Y-120129500D01*
X193930252Y-120129500D01*
X193901010Y-120135316D01*
X193871767Y-120141133D01*
X193805449Y-120185447D01*
X193805447Y-120185449D01*
X193761133Y-120251767D01*
X193749500Y-120310253D01*
X192349999Y-120310253D01*
X192349999Y-120285207D01*
X192347091Y-120260131D01*
X192347089Y-120260125D01*
X192301786Y-120157521D01*
X192222478Y-120078213D01*
X192119875Y-120032910D01*
X192119876Y-120032910D01*
X192094789Y-120030000D01*
X190575000Y-120030000D01*
X190575000Y-120730000D01*
X190375000Y-120730000D01*
X190375000Y-120030000D01*
X188855207Y-120030000D01*
X188830131Y-120032908D01*
X188830125Y-120032910D01*
X188727521Y-120078213D01*
X188648213Y-120157521D01*
X188602910Y-120260124D01*
X188600000Y-120285210D01*
X162100500Y-120285210D01*
X162100500Y-117990097D01*
X189569500Y-117990097D01*
X189569500Y-118139902D01*
X189598723Y-118286823D01*
X189598726Y-118286834D01*
X189656051Y-118425229D01*
X189719219Y-118519767D01*
X189739281Y-118549791D01*
X189845209Y-118655719D01*
X189969768Y-118738947D01*
X189969769Y-118738947D01*
X189969770Y-118738948D01*
X190077845Y-118783714D01*
X190108170Y-118796275D01*
X190255097Y-118825500D01*
X190404903Y-118825500D01*
X190551830Y-118796275D01*
X190690232Y-118738947D01*
X190814791Y-118655719D01*
X190920719Y-118549791D01*
X191003947Y-118425232D01*
X191061275Y-118286830D01*
X191090500Y-118139903D01*
X191090500Y-117990097D01*
X191061275Y-117843170D01*
X191061273Y-117843165D01*
X191003948Y-117704770D01*
X190920721Y-117580212D01*
X190920719Y-117580209D01*
X190814791Y-117474281D01*
X190690232Y-117391053D01*
X190690231Y-117391052D01*
X190690229Y-117391051D01*
X190551834Y-117333726D01*
X190551823Y-117333723D01*
X190404903Y-117304500D01*
X190255097Y-117304500D01*
X190108176Y-117333723D01*
X190108165Y-117333726D01*
X189969770Y-117391051D01*
X189845212Y-117474278D01*
X189739278Y-117580212D01*
X189656051Y-117704770D01*
X189598726Y-117843165D01*
X189598723Y-117843176D01*
X189569500Y-117990097D01*
X162100500Y-117990097D01*
X162100500Y-113059060D01*
X162103022Y-113039907D01*
X162125499Y-112956020D01*
X162125500Y-112956020D01*
X162125500Y-112843980D01*
X162125499Y-112843979D01*
X162096504Y-112735767D01*
X162096503Y-112735763D01*
X162040485Y-112638737D01*
X161961263Y-112559515D01*
X161864241Y-112503499D01*
X161864232Y-112503495D01*
X161756020Y-112474500D01*
X161756018Y-112474500D01*
X161643982Y-112474500D01*
X161643980Y-112474500D01*
X161535767Y-112503495D01*
X161535758Y-112503499D01*
X161438736Y-112559515D01*
X161359515Y-112638736D01*
X161303499Y-112735758D01*
X161303495Y-112735767D01*
X161274500Y-112843979D01*
X108200500Y-112843979D01*
X108200500Y-96938394D01*
X155469500Y-96938394D01*
X155469500Y-97061605D01*
X155493535Y-97182445D01*
X155493537Y-97182452D01*
X155540688Y-97296285D01*
X155540689Y-97296286D01*
X155609142Y-97398733D01*
X155696267Y-97485858D01*
X155696270Y-97485860D01*
X155798714Y-97554311D01*
X155828462Y-97566633D01*
X155868510Y-97606682D01*
X155868510Y-97663319D01*
X155828462Y-97703367D01*
X155798714Y-97715688D01*
X155696270Y-97784139D01*
X155609139Y-97871270D01*
X155540688Y-97973714D01*
X155493537Y-98087547D01*
X155493535Y-98087554D01*
X155469500Y-98208394D01*
X155469500Y-98331605D01*
X155493535Y-98452445D01*
X155493537Y-98452452D01*
X155540688Y-98566285D01*
X155540689Y-98566286D01*
X155609142Y-98668733D01*
X155696267Y-98755858D01*
X155696270Y-98755860D01*
X155798714Y-98824311D01*
X155828462Y-98836633D01*
X155868510Y-98876682D01*
X155868510Y-98933319D01*
X155828462Y-98973367D01*
X155798714Y-98985688D01*
X155696270Y-99054139D01*
X155609139Y-99141270D01*
X155540688Y-99243714D01*
X155493537Y-99357547D01*
X155493535Y-99357554D01*
X155469500Y-99478394D01*
X155469500Y-99601605D01*
X155493535Y-99722445D01*
X155493537Y-99722452D01*
X155540688Y-99836285D01*
X155540689Y-99836286D01*
X155609142Y-99938733D01*
X155696267Y-100025858D01*
X155696270Y-100025860D01*
X155798714Y-100094311D01*
X155828462Y-100106633D01*
X155868510Y-100146682D01*
X155868510Y-100203319D01*
X155828462Y-100243367D01*
X155798714Y-100255688D01*
X155696270Y-100324139D01*
X155609139Y-100411270D01*
X155540688Y-100513714D01*
X155493537Y-100627547D01*
X155493535Y-100627554D01*
X155469500Y-100748394D01*
X155469500Y-100871605D01*
X155493535Y-100992445D01*
X155493537Y-100992452D01*
X155540688Y-101106285D01*
X155540689Y-101106286D01*
X155609142Y-101208733D01*
X155696267Y-101295858D01*
X155696270Y-101295860D01*
X155798714Y-101364311D01*
X155828462Y-101376633D01*
X155868510Y-101416682D01*
X155868510Y-101473319D01*
X155828462Y-101513367D01*
X155798714Y-101525688D01*
X155696270Y-101594139D01*
X155609139Y-101681270D01*
X155540688Y-101783714D01*
X155493537Y-101897547D01*
X155493535Y-101897554D01*
X155469500Y-102018394D01*
X155469500Y-102141605D01*
X155493535Y-102262445D01*
X155493537Y-102262452D01*
X155540688Y-102376285D01*
X155540689Y-102376286D01*
X155609142Y-102478733D01*
X155696267Y-102565858D01*
X155696270Y-102565860D01*
X155798714Y-102634311D01*
X155828462Y-102646633D01*
X155868510Y-102686682D01*
X155868510Y-102743319D01*
X155828462Y-102783367D01*
X155798714Y-102795688D01*
X155696270Y-102864139D01*
X155609139Y-102951270D01*
X155540688Y-103053714D01*
X155493537Y-103167547D01*
X155493535Y-103167554D01*
X155469500Y-103288394D01*
X155469500Y-103411605D01*
X155493535Y-103532445D01*
X155493537Y-103532452D01*
X155540688Y-103646285D01*
X155540689Y-103646286D01*
X155609142Y-103748733D01*
X155696267Y-103835858D01*
X155696270Y-103835860D01*
X155798714Y-103904311D01*
X155828462Y-103916633D01*
X155868510Y-103956682D01*
X155868510Y-104013319D01*
X155828462Y-104053367D01*
X155798714Y-104065688D01*
X155696270Y-104134139D01*
X155609139Y-104221270D01*
X155540688Y-104323714D01*
X155493537Y-104437547D01*
X155493535Y-104437554D01*
X155469500Y-104558394D01*
X155469500Y-104681605D01*
X155493535Y-104802445D01*
X155493537Y-104802452D01*
X155540688Y-104916285D01*
X155540689Y-104916286D01*
X155609142Y-105018733D01*
X155696267Y-105105858D01*
X155696270Y-105105860D01*
X155798714Y-105174311D01*
X155828462Y-105186633D01*
X155868510Y-105226682D01*
X155868510Y-105283319D01*
X155828462Y-105323367D01*
X155798714Y-105335688D01*
X155696270Y-105404139D01*
X155609139Y-105491270D01*
X155540688Y-105593714D01*
X155493537Y-105707547D01*
X155493535Y-105707554D01*
X155469500Y-105828394D01*
X155469500Y-105951605D01*
X155493535Y-106072445D01*
X155493537Y-106072452D01*
X155540688Y-106186285D01*
X155540689Y-106186286D01*
X155609142Y-106288733D01*
X155696267Y-106375858D01*
X155696270Y-106375860D01*
X155798714Y-106444311D01*
X155828462Y-106456633D01*
X155868510Y-106496682D01*
X155868510Y-106553319D01*
X155828462Y-106593367D01*
X155798714Y-106605688D01*
X155696270Y-106674139D01*
X155609139Y-106761270D01*
X155540688Y-106863714D01*
X155493537Y-106977547D01*
X155493535Y-106977554D01*
X155469500Y-107098394D01*
X155469500Y-107221605D01*
X155493535Y-107342445D01*
X155493537Y-107342452D01*
X155540688Y-107456285D01*
X155540689Y-107456286D01*
X155609142Y-107558733D01*
X155696267Y-107645858D01*
X155696270Y-107645860D01*
X155798714Y-107714311D01*
X155828462Y-107726633D01*
X155868510Y-107766682D01*
X155868510Y-107823319D01*
X155828462Y-107863367D01*
X155798714Y-107875688D01*
X155696270Y-107944139D01*
X155609139Y-108031270D01*
X155540688Y-108133714D01*
X155493537Y-108247547D01*
X155493535Y-108247554D01*
X155469500Y-108368394D01*
X155469500Y-108491605D01*
X155493535Y-108612445D01*
X155493537Y-108612452D01*
X155540688Y-108726285D01*
X155540689Y-108726286D01*
X155609142Y-108828733D01*
X155696267Y-108915858D01*
X155798714Y-108984311D01*
X155912548Y-109031463D01*
X156033394Y-109055500D01*
X156156606Y-109055500D01*
X156277452Y-109031463D01*
X156391286Y-108984311D01*
X156493733Y-108915858D01*
X156580858Y-108828733D01*
X156649311Y-108726286D01*
X156661633Y-108696537D01*
X156701681Y-108656489D01*
X156758318Y-108656489D01*
X156798366Y-108696536D01*
X156798367Y-108696538D01*
X156810687Y-108726283D01*
X156810688Y-108726285D01*
X156810689Y-108726286D01*
X156879142Y-108828733D01*
X156966267Y-108915858D01*
X157068714Y-108984311D01*
X157182548Y-109031463D01*
X157303394Y-109055500D01*
X157426606Y-109055500D01*
X157547452Y-109031463D01*
X157661286Y-108984311D01*
X157763733Y-108915858D01*
X157850858Y-108828733D01*
X157919311Y-108726286D01*
X157931633Y-108696537D01*
X157971681Y-108656489D01*
X158028318Y-108656489D01*
X158068366Y-108696536D01*
X158068367Y-108696538D01*
X158080687Y-108726283D01*
X158080688Y-108726285D01*
X158080689Y-108726286D01*
X158149142Y-108828733D01*
X158236267Y-108915858D01*
X158338714Y-108984311D01*
X158452548Y-109031463D01*
X158573394Y-109055500D01*
X158696606Y-109055500D01*
X158817452Y-109031463D01*
X158931286Y-108984311D01*
X159033733Y-108915858D01*
X159120858Y-108828733D01*
X159189311Y-108726286D01*
X159201633Y-108696537D01*
X159241681Y-108656489D01*
X159298318Y-108656489D01*
X159338366Y-108696536D01*
X159338367Y-108696538D01*
X159350687Y-108726283D01*
X159350688Y-108726285D01*
X159350689Y-108726286D01*
X159419142Y-108828733D01*
X159506267Y-108915858D01*
X159608714Y-108984311D01*
X159722548Y-109031463D01*
X159843394Y-109055500D01*
X159966606Y-109055500D01*
X160087452Y-109031463D01*
X160201286Y-108984311D01*
X160303733Y-108915858D01*
X160390858Y-108828733D01*
X160459311Y-108726286D01*
X160506463Y-108612452D01*
X160530500Y-108491606D01*
X160530500Y-108368394D01*
X160506463Y-108247548D01*
X160459311Y-108133714D01*
X160390858Y-108031267D01*
X160303733Y-107944142D01*
X160201286Y-107875689D01*
X160201285Y-107875688D01*
X160201283Y-107875687D01*
X160171538Y-107863367D01*
X160131489Y-107823319D01*
X160131489Y-107766682D01*
X160171536Y-107726633D01*
X160201286Y-107714311D01*
X160303733Y-107645858D01*
X160390858Y-107558733D01*
X160459311Y-107456286D01*
X160506463Y-107342452D01*
X160530500Y-107221606D01*
X160530500Y-107098394D01*
X160506463Y-106977548D01*
X160459311Y-106863714D01*
X160390858Y-106761267D01*
X160303733Y-106674142D01*
X160201286Y-106605689D01*
X160201285Y-106605688D01*
X160201283Y-106605687D01*
X160171538Y-106593367D01*
X160131489Y-106553319D01*
X160131489Y-106496682D01*
X160171536Y-106456633D01*
X160201286Y-106444311D01*
X160303733Y-106375858D01*
X160390858Y-106288733D01*
X160459311Y-106186286D01*
X160506463Y-106072452D01*
X160530500Y-105951606D01*
X160530500Y-105828394D01*
X160506463Y-105707548D01*
X160459311Y-105593714D01*
X160390858Y-105491267D01*
X160303733Y-105404142D01*
X160201286Y-105335689D01*
X160201285Y-105335688D01*
X160201283Y-105335687D01*
X160171538Y-105323367D01*
X160131489Y-105283319D01*
X160131489Y-105226682D01*
X160171536Y-105186633D01*
X160201286Y-105174311D01*
X160303733Y-105105858D01*
X160390858Y-105018733D01*
X160459311Y-104916286D01*
X160506463Y-104802452D01*
X160530500Y-104681606D01*
X160530500Y-104558394D01*
X160506463Y-104437548D01*
X160459311Y-104323714D01*
X160390858Y-104221267D01*
X160303733Y-104134142D01*
X160201286Y-104065689D01*
X160201285Y-104065688D01*
X160201283Y-104065687D01*
X160171538Y-104053367D01*
X160131489Y-104013319D01*
X160131489Y-103956682D01*
X160171536Y-103916633D01*
X160201286Y-103904311D01*
X160303733Y-103835858D01*
X160390858Y-103748733D01*
X160459311Y-103646286D01*
X160506463Y-103532452D01*
X160530500Y-103411606D01*
X160530500Y-103288394D01*
X160506463Y-103167548D01*
X160459311Y-103053714D01*
X160390858Y-102951267D01*
X160303733Y-102864142D01*
X160201286Y-102795689D01*
X160201285Y-102795688D01*
X160201283Y-102795687D01*
X160171538Y-102783367D01*
X160131489Y-102743319D01*
X160131489Y-102686682D01*
X160171536Y-102646633D01*
X160201286Y-102634311D01*
X160303733Y-102565858D01*
X160390858Y-102478733D01*
X160459311Y-102376286D01*
X160506463Y-102262452D01*
X160530500Y-102141606D01*
X160530500Y-102018394D01*
X160506463Y-101897548D01*
X160459311Y-101783714D01*
X160390858Y-101681267D01*
X160303733Y-101594142D01*
X160201286Y-101525689D01*
X160201285Y-101525688D01*
X160201283Y-101525687D01*
X160171538Y-101513367D01*
X160131489Y-101473319D01*
X160131489Y-101416682D01*
X160171536Y-101376633D01*
X160201286Y-101364311D01*
X160303733Y-101295858D01*
X160390858Y-101208733D01*
X160459311Y-101106286D01*
X160506463Y-100992452D01*
X160530500Y-100871606D01*
X160530500Y-100748394D01*
X160506463Y-100627548D01*
X160459311Y-100513714D01*
X160390858Y-100411267D01*
X160303733Y-100324142D01*
X160201286Y-100255689D01*
X160201285Y-100255688D01*
X160201283Y-100255687D01*
X160171538Y-100243367D01*
X160131489Y-100203319D01*
X160131489Y-100146682D01*
X160171536Y-100106633D01*
X160201286Y-100094311D01*
X160303733Y-100025858D01*
X160390858Y-99938733D01*
X160459311Y-99836286D01*
X160506463Y-99722452D01*
X160530500Y-99601606D01*
X160530500Y-99478394D01*
X160506463Y-99357548D01*
X160459311Y-99243714D01*
X160390858Y-99141267D01*
X160303733Y-99054142D01*
X160201286Y-98985689D01*
X160201285Y-98985688D01*
X160201283Y-98985687D01*
X160171538Y-98973367D01*
X160131489Y-98933319D01*
X160131489Y-98876682D01*
X160171536Y-98836633D01*
X160201286Y-98824311D01*
X160303733Y-98755858D01*
X160390858Y-98668733D01*
X160459311Y-98566286D01*
X160506463Y-98452452D01*
X160530500Y-98331606D01*
X160530500Y-98208394D01*
X160506463Y-98087548D01*
X160459311Y-97973714D01*
X160390858Y-97871267D01*
X160303733Y-97784142D01*
X160269141Y-97761028D01*
X160237676Y-97713937D01*
X160248725Y-97658388D01*
X160295817Y-97626922D01*
X160310254Y-97625500D01*
X160349746Y-97625500D01*
X160349748Y-97625500D01*
X160408231Y-97613867D01*
X160474552Y-97569552D01*
X160518867Y-97503231D01*
X160530500Y-97444748D01*
X160530500Y-96555252D01*
X160518867Y-96496769D01*
X160474552Y-96430448D01*
X160452343Y-96415608D01*
X160408232Y-96386133D01*
X160408233Y-96386133D01*
X160378989Y-96380316D01*
X160349748Y-96374500D01*
X159570545Y-96374500D01*
X159518219Y-96352826D01*
X159496545Y-96300500D01*
X159518219Y-96248174D01*
X159544219Y-96222174D01*
X159596545Y-96200500D01*
X160503455Y-96200500D01*
X160555781Y-96222174D01*
X161277826Y-96944218D01*
X161299500Y-96996544D01*
X161299500Y-109840936D01*
X161296979Y-109860088D01*
X161274500Y-109943982D01*
X161274500Y-110056020D01*
X161303495Y-110164232D01*
X161303496Y-110164235D01*
X161303497Y-110164237D01*
X161359515Y-110261263D01*
X161438737Y-110340485D01*
X161535763Y-110396503D01*
X161643979Y-110425499D01*
X161643980Y-110425500D01*
X161643982Y-110425500D01*
X161756020Y-110425500D01*
X161756020Y-110425499D01*
X161864237Y-110396503D01*
X161961263Y-110340485D01*
X162040485Y-110261263D01*
X162096503Y-110164237D01*
X162125499Y-110056020D01*
X162125500Y-110056020D01*
X162125500Y-109943982D01*
X162103021Y-109860088D01*
X162100500Y-109840936D01*
X162100500Y-96858698D01*
X162100501Y-96858685D01*
X162100501Y-96747271D01*
X162100500Y-96747270D01*
X162073208Y-96645416D01*
X162073207Y-96645415D01*
X162073207Y-96645413D01*
X162062457Y-96626793D01*
X162047721Y-96601270D01*
X162020481Y-96554088D01*
X161943334Y-96476941D01*
X161943323Y-96476931D01*
X161666892Y-96200500D01*
X160945913Y-95479520D01*
X160945910Y-95479518D01*
X160945909Y-95479517D01*
X160854592Y-95426795D01*
X160854588Y-95426793D01*
X160854581Y-95426791D01*
X160752727Y-95399500D01*
X159347273Y-95399500D01*
X159347271Y-95399500D01*
X159245417Y-95426791D01*
X159245408Y-95426795D01*
X159154086Y-95479520D01*
X158314517Y-96319090D01*
X158261795Y-96410407D01*
X158261791Y-96410416D01*
X158252340Y-96445690D01*
X158238300Y-96498087D01*
X158219148Y-96531259D01*
X158172583Y-96577825D01*
X158120258Y-96599500D01*
X157879743Y-96599500D01*
X157827417Y-96577826D01*
X157763731Y-96514140D01*
X157763729Y-96514139D01*
X157661285Y-96445688D01*
X157547452Y-96398537D01*
X157547445Y-96398535D01*
X157426606Y-96374500D01*
X157303394Y-96374500D01*
X157182554Y-96398535D01*
X157182547Y-96398537D01*
X157068714Y-96445688D01*
X156966270Y-96514139D01*
X156879139Y-96601270D01*
X156810688Y-96703714D01*
X156798367Y-96733462D01*
X156758318Y-96773510D01*
X156701681Y-96773510D01*
X156661633Y-96733462D01*
X156649311Y-96703714D01*
X156580860Y-96601270D01*
X156580858Y-96601267D01*
X156493733Y-96514142D01*
X156490936Y-96512273D01*
X156391285Y-96445688D01*
X156277452Y-96398537D01*
X156277445Y-96398535D01*
X156156606Y-96374500D01*
X156033394Y-96374500D01*
X155912554Y-96398535D01*
X155912547Y-96398537D01*
X155798714Y-96445688D01*
X155696270Y-96514139D01*
X155609139Y-96601270D01*
X155540688Y-96703714D01*
X155493537Y-96817547D01*
X155493535Y-96817554D01*
X155469500Y-96938394D01*
X108200500Y-96938394D01*
X108200500Y-81860097D01*
X119569500Y-81860097D01*
X119569500Y-82009902D01*
X119598723Y-82156823D01*
X119598726Y-82156834D01*
X119656051Y-82295229D01*
X119656052Y-82295231D01*
X119656053Y-82295232D01*
X119739281Y-82419791D01*
X119845209Y-82525719D01*
X119969768Y-82608947D01*
X120108170Y-82666275D01*
X120255097Y-82695500D01*
X120404903Y-82695500D01*
X120551830Y-82666275D01*
X120690232Y-82608947D01*
X120814791Y-82525719D01*
X120920719Y-82419791D01*
X121003947Y-82295232D01*
X121061275Y-82156830D01*
X121090500Y-82009903D01*
X121090500Y-81860097D01*
X189569500Y-81860097D01*
X189569500Y-82009902D01*
X189598723Y-82156823D01*
X189598726Y-82156834D01*
X189656051Y-82295229D01*
X189656052Y-82295231D01*
X189656053Y-82295232D01*
X189739281Y-82419791D01*
X189845209Y-82525719D01*
X189969768Y-82608947D01*
X190108170Y-82666275D01*
X190255097Y-82695500D01*
X190404903Y-82695500D01*
X190551830Y-82666275D01*
X190690232Y-82608947D01*
X190814791Y-82525719D01*
X190920719Y-82419791D01*
X191003947Y-82295232D01*
X191061275Y-82156830D01*
X191090500Y-82009903D01*
X191090500Y-81860097D01*
X191061275Y-81713170D01*
X191003947Y-81574768D01*
X190920719Y-81450209D01*
X190814791Y-81344281D01*
X190690232Y-81261053D01*
X190690231Y-81261052D01*
X190690229Y-81261051D01*
X190551834Y-81203726D01*
X190551823Y-81203723D01*
X190404903Y-81174500D01*
X190255097Y-81174500D01*
X190108176Y-81203723D01*
X190108165Y-81203726D01*
X189969770Y-81261051D01*
X189845212Y-81344278D01*
X189739278Y-81450212D01*
X189656051Y-81574770D01*
X189598726Y-81713165D01*
X189598723Y-81713176D01*
X189569500Y-81860097D01*
X121090500Y-81860097D01*
X121061275Y-81713170D01*
X121003947Y-81574768D01*
X120920719Y-81450209D01*
X120814791Y-81344281D01*
X120690232Y-81261053D01*
X120690231Y-81261052D01*
X120690229Y-81261051D01*
X120551834Y-81203726D01*
X120551823Y-81203723D01*
X120404903Y-81174500D01*
X120255097Y-81174500D01*
X120108176Y-81203723D01*
X120108165Y-81203726D01*
X119969770Y-81261051D01*
X119845212Y-81344278D01*
X119739278Y-81450212D01*
X119656051Y-81574770D01*
X119598726Y-81713165D01*
X119598723Y-81713176D01*
X119569500Y-81860097D01*
X108200500Y-81860097D01*
X108200500Y-80002083D01*
X108200616Y-79997934D01*
X108202740Y-79960118D01*
X108217870Y-79690688D01*
X108218800Y-79682450D01*
X108269994Y-79381140D01*
X108271833Y-79373080D01*
X108356453Y-79079361D01*
X108359183Y-79071558D01*
X108476150Y-78789175D01*
X108479743Y-78781713D01*
X108627590Y-78514204D01*
X108631991Y-78507199D01*
X108808875Y-78257904D01*
X108814020Y-78251453D01*
X109017690Y-78023548D01*
X109023553Y-78017686D01*
X109251453Y-77814020D01*
X109257904Y-77808875D01*
X109507199Y-77631991D01*
X109514204Y-77627590D01*
X109781713Y-77479743D01*
X109789175Y-77476150D01*
X110071558Y-77359183D01*
X110079361Y-77356453D01*
X110373080Y-77271833D01*
X110381140Y-77269994D01*
X110682458Y-77218799D01*
X110690688Y-77217870D01*
X110997934Y-77200615D01*
X111002083Y-77200500D01*
X111039882Y-77200500D01*
X204960118Y-77200500D01*
X204997917Y-77200500D01*
X205002065Y-77200615D01*
G37*
%TD.AperFunction*%
%TD*%
M02*
