%TF.GenerationSoftware,KiCad,Pcbnew,9.0.3*%
%TF.CreationDate,2025-10-24T12:13:40-04:00*%
%TF.ProjectId,ephys-test-module-molc-64-chan,65706879-732d-4746-9573-742d6d6f6475,B*%
%TF.SameCoordinates,Original*%
%TF.FileFunction,Soldermask,Bot*%
%TF.FilePolarity,Negative*%
%FSLAX46Y46*%
G04 Gerber Fmt 4.6, Leading zero omitted, Abs format (unit mm)*
G04 Created by KiCad (PCBNEW 9.0.3) date 2025-10-24 12:13:40*
%MOMM*%
%LPD*%
G01*
G04 APERTURE LIST*
%ADD10R,0.850000X0.850000*%
%ADD11C,0.850000*%
%ADD12C,1.020000*%
%ADD13R,2.273000X0.410000*%
%ADD14R,0.800000X0.300000*%
G04 APERTURE END LIST*
D10*
%TO.C,J1*%
X159905000Y-97000000D03*
D11*
X159905000Y-98270000D03*
X159905000Y-99540000D03*
X159905000Y-100810000D03*
X159905000Y-102080000D03*
X159905000Y-103350000D03*
X159905000Y-104620000D03*
X159905000Y-105890000D03*
X159905000Y-107160000D03*
X159905000Y-108430000D03*
X158635000Y-97000000D03*
X158635000Y-98270000D03*
X158635000Y-99540000D03*
X158635000Y-100810000D03*
X158635000Y-102080000D03*
X158635000Y-103350000D03*
X158635000Y-104620000D03*
X158635000Y-105890000D03*
X158635000Y-107160000D03*
X158635000Y-108430000D03*
X157365000Y-97000000D03*
X157365000Y-98270000D03*
X157365000Y-99540000D03*
X157365000Y-100810000D03*
X157365000Y-102080000D03*
X157365000Y-103350000D03*
X157365000Y-104620000D03*
X157365000Y-105890000D03*
X157365000Y-107160000D03*
X157365000Y-108430000D03*
X156095000Y-97000000D03*
X156095000Y-98270000D03*
X156095000Y-99540000D03*
X156095000Y-100810000D03*
X156095000Y-102080000D03*
X156095000Y-103350000D03*
X156095000Y-104620000D03*
X156095000Y-105890000D03*
X156095000Y-107160000D03*
X156095000Y-108430000D03*
%TD*%
D10*
%TO.C,J2*%
X159905000Y-114000000D03*
D11*
X159905000Y-115270000D03*
X159905000Y-116540000D03*
X159905000Y-117810000D03*
X159905000Y-119080000D03*
X159905000Y-120350000D03*
X159905000Y-121620000D03*
X159905000Y-122890000D03*
X159905000Y-124160000D03*
X159905000Y-125430000D03*
X158635000Y-114000000D03*
X158635000Y-115270000D03*
X158635000Y-116540000D03*
X158635000Y-117810000D03*
X158635000Y-119080000D03*
X158635000Y-120350000D03*
X158635000Y-121620000D03*
X158635000Y-122890000D03*
X158635000Y-124160000D03*
X158635000Y-125430000D03*
X157365000Y-114000000D03*
X157365000Y-115270000D03*
X157365000Y-116540000D03*
X157365000Y-117810000D03*
X157365000Y-119080000D03*
X157365000Y-120350000D03*
X157365000Y-121620000D03*
X157365000Y-122890000D03*
X157365000Y-124160000D03*
X157365000Y-125430000D03*
X156095000Y-114000000D03*
X156095000Y-115270000D03*
X156095000Y-116540000D03*
X156095000Y-117810000D03*
X156095000Y-119080000D03*
X156095000Y-120350000D03*
X156095000Y-121620000D03*
X156095000Y-122890000D03*
X156095000Y-124160000D03*
X156095000Y-125430000D03*
%TD*%
D12*
%TO.C,J4*%
X120330000Y-81935000D03*
X120330000Y-118065000D03*
D13*
X125863500Y-84400000D03*
X120136500Y-84400000D03*
X125863500Y-85200000D03*
X120136500Y-85200000D03*
X125863500Y-86000000D03*
X120136500Y-86000000D03*
X125863500Y-86800000D03*
X120136500Y-86800000D03*
X125863500Y-87600000D03*
X120136500Y-87600000D03*
X125863500Y-88400000D03*
X120136500Y-88400000D03*
X125863500Y-89200000D03*
X120136500Y-89200000D03*
X125863500Y-90000000D03*
X120136500Y-90000000D03*
X125863500Y-90800000D03*
X120136500Y-90800000D03*
X125863500Y-91600000D03*
X120136500Y-91600000D03*
X125863500Y-92400000D03*
X120136500Y-92400000D03*
X125863500Y-93200000D03*
X120136500Y-93200000D03*
X125863500Y-94000000D03*
X120136500Y-94000000D03*
X125863500Y-94800000D03*
X120136500Y-94800000D03*
X125863500Y-95600000D03*
X120136500Y-95600000D03*
X125863500Y-96400000D03*
X120136500Y-96400000D03*
X125863500Y-97200000D03*
X120136500Y-97200000D03*
X125863500Y-98000000D03*
X120136500Y-98000000D03*
X125863500Y-98800000D03*
X120136500Y-98800000D03*
X125863500Y-99600000D03*
X120136500Y-99600000D03*
X125863500Y-100400000D03*
X120136500Y-100400000D03*
X125863500Y-101200000D03*
X120136500Y-101200000D03*
X125863500Y-102000000D03*
X120136500Y-102000000D03*
X125863500Y-102800000D03*
X120136500Y-102800000D03*
X125863500Y-103600000D03*
X120136500Y-103600000D03*
X125863500Y-104400000D03*
X120136500Y-104400000D03*
X125863500Y-105200000D03*
X120136500Y-105200000D03*
X125863500Y-106000000D03*
X120136500Y-106000000D03*
X125863500Y-106800000D03*
X120136500Y-106800000D03*
X125863500Y-107600000D03*
X120136500Y-107600000D03*
X125863500Y-108400000D03*
X120136500Y-108400000D03*
X125863500Y-109200000D03*
X120136500Y-109200000D03*
X125863500Y-110000000D03*
X120136500Y-110000000D03*
X125863500Y-110800000D03*
X120136500Y-110800000D03*
X125863500Y-111600000D03*
X120136500Y-111600000D03*
X125863500Y-112400000D03*
X120136500Y-112400000D03*
X125863500Y-113200000D03*
X120136500Y-113200000D03*
X125863500Y-114000000D03*
X120136500Y-114000000D03*
X125863500Y-114800000D03*
X120136500Y-114800000D03*
X125863500Y-115600000D03*
X120136500Y-115600000D03*
%TD*%
D14*
%TO.C,RN2*%
X152000000Y-118650000D03*
X152000000Y-118150000D03*
X152000000Y-117650000D03*
X152000000Y-117150000D03*
X152000000Y-116650000D03*
X152000000Y-116150000D03*
X152000000Y-115650000D03*
X152000000Y-115150000D03*
X153800000Y-115150000D03*
X153800000Y-115650000D03*
X153800000Y-116150000D03*
X153800000Y-116650000D03*
X153800000Y-117150000D03*
X153800000Y-117650000D03*
X153800000Y-118150000D03*
X153800000Y-118650000D03*
%TD*%
%TO.C,RN5*%
X162200000Y-118650000D03*
X162200000Y-118150000D03*
X162200000Y-117650000D03*
X162200000Y-117150000D03*
X162200000Y-116650000D03*
X162200000Y-116150000D03*
X162200000Y-115650000D03*
X162200000Y-115150000D03*
X164000000Y-115150000D03*
X164000000Y-115650000D03*
X164000000Y-116150000D03*
X164000000Y-116650000D03*
X164000000Y-117150000D03*
X164000000Y-117650000D03*
X164000000Y-118150000D03*
X164000000Y-118650000D03*
%TD*%
%TO.C,RN7*%
X162200000Y-124750000D03*
X162200000Y-124250000D03*
X162200000Y-123750000D03*
X162200000Y-123250000D03*
X162200000Y-122750000D03*
X162200000Y-122250000D03*
X162200000Y-121750000D03*
X162200000Y-121250000D03*
X164000000Y-121250000D03*
X164000000Y-121750000D03*
X164000000Y-122250000D03*
X164000000Y-122750000D03*
X164000000Y-123250000D03*
X164000000Y-123750000D03*
X164000000Y-124250000D03*
X164000000Y-124750000D03*
%TD*%
%TO.C,RN1*%
X152000000Y-124750000D03*
X152000000Y-124250000D03*
X152000000Y-123750000D03*
X152000000Y-123250000D03*
X152000000Y-122750000D03*
X152000000Y-122250000D03*
X152000000Y-121750000D03*
X152000000Y-121250000D03*
X153800000Y-121250000D03*
X153800000Y-121750000D03*
X153800000Y-122250000D03*
X153800000Y-122750000D03*
X153800000Y-123250000D03*
X153800000Y-123750000D03*
X153800000Y-124250000D03*
X153800000Y-124750000D03*
%TD*%
%TO.C,RN3*%
X152000000Y-107950000D03*
X152000000Y-107450000D03*
X152000000Y-106950000D03*
X152000000Y-106450000D03*
X152000000Y-105950000D03*
X152000000Y-105450000D03*
X152000000Y-104950000D03*
X152000000Y-104450000D03*
X153800000Y-104450000D03*
X153800000Y-104950000D03*
X153800000Y-105450000D03*
X153800000Y-105950000D03*
X153800000Y-106450000D03*
X153800000Y-106950000D03*
X153800000Y-107450000D03*
X153800000Y-107950000D03*
%TD*%
%TO.C,RN4*%
X152000000Y-101850000D03*
X152000000Y-101350000D03*
X152000000Y-100850000D03*
X152000000Y-100350000D03*
X152000000Y-99850000D03*
X152000000Y-99350000D03*
X152000000Y-98850000D03*
X152000000Y-98350000D03*
X153800000Y-98350000D03*
X153800000Y-98850000D03*
X153800000Y-99350000D03*
X153800000Y-99850000D03*
X153800000Y-100350000D03*
X153800000Y-100850000D03*
X153800000Y-101350000D03*
X153800000Y-101850000D03*
%TD*%
%TO.C,RN6*%
X162200000Y-101850000D03*
X162200000Y-101350000D03*
X162200000Y-100850000D03*
X162200000Y-100350000D03*
X162200000Y-99850000D03*
X162200000Y-99350000D03*
X162200000Y-98850000D03*
X162200000Y-98350000D03*
X164000000Y-98350000D03*
X164000000Y-98850000D03*
X164000000Y-99350000D03*
X164000000Y-99850000D03*
X164000000Y-100350000D03*
X164000000Y-100850000D03*
X164000000Y-101350000D03*
X164000000Y-101850000D03*
%TD*%
D12*
%TO.C,J5*%
X190330000Y-81935000D03*
X190330000Y-118065000D03*
D13*
X195863500Y-84400000D03*
X190136500Y-84400000D03*
X195863500Y-85200000D03*
X190136500Y-85200000D03*
X195863500Y-86000000D03*
X190136500Y-86000000D03*
X195863500Y-86800000D03*
X190136500Y-86800000D03*
X195863500Y-87600000D03*
X190136500Y-87600000D03*
X195863500Y-88400000D03*
X190136500Y-88400000D03*
X195863500Y-89200000D03*
X190136500Y-89200000D03*
X195863500Y-90000000D03*
X190136500Y-90000000D03*
X195863500Y-90800000D03*
X190136500Y-90800000D03*
X195863500Y-91600000D03*
X190136500Y-91600000D03*
X195863500Y-92400000D03*
X190136500Y-92400000D03*
X195863500Y-93200000D03*
X190136500Y-93200000D03*
X195863500Y-94000000D03*
X190136500Y-94000000D03*
X195863500Y-94800000D03*
X190136500Y-94800000D03*
X195863500Y-95600000D03*
X190136500Y-95600000D03*
X195863500Y-96400000D03*
X190136500Y-96400000D03*
X195863500Y-97200000D03*
X190136500Y-97200000D03*
X195863500Y-98000000D03*
X190136500Y-98000000D03*
X195863500Y-98800000D03*
X190136500Y-98800000D03*
X195863500Y-99600000D03*
X190136500Y-99600000D03*
X195863500Y-100400000D03*
X190136500Y-100400000D03*
X195863500Y-101200000D03*
X190136500Y-101200000D03*
X195863500Y-102000000D03*
X190136500Y-102000000D03*
X195863500Y-102800000D03*
X190136500Y-102800000D03*
X195863500Y-103600000D03*
X190136500Y-103600000D03*
X195863500Y-104400000D03*
X190136500Y-104400000D03*
X195863500Y-105200000D03*
X190136500Y-105200000D03*
X195863500Y-106000000D03*
X190136500Y-106000000D03*
X195863500Y-106800000D03*
X190136500Y-106800000D03*
X195863500Y-107600000D03*
X190136500Y-107600000D03*
X195863500Y-108400000D03*
X190136500Y-108400000D03*
X195863500Y-109200000D03*
X190136500Y-109200000D03*
X195863500Y-110000000D03*
X190136500Y-110000000D03*
X195863500Y-110800000D03*
X190136500Y-110800000D03*
X195863500Y-111600000D03*
X190136500Y-111600000D03*
X195863500Y-112400000D03*
X190136500Y-112400000D03*
X195863500Y-113200000D03*
X190136500Y-113200000D03*
X195863500Y-114000000D03*
X190136500Y-114000000D03*
X195863500Y-114800000D03*
X190136500Y-114800000D03*
X195863500Y-115600000D03*
X190136500Y-115600000D03*
%TD*%
D14*
%TO.C,RN8*%
X162200000Y-107950000D03*
X162200000Y-107450000D03*
X162200000Y-106950000D03*
X162200000Y-106450000D03*
X162200000Y-105950000D03*
X162200000Y-105450000D03*
X162200000Y-104950000D03*
X162200000Y-104450000D03*
X164000000Y-104450000D03*
X164000000Y-104950000D03*
X164000000Y-105450000D03*
X164000000Y-105950000D03*
X164000000Y-106450000D03*
X164000000Y-106950000D03*
X164000000Y-107450000D03*
X164000000Y-107950000D03*
%TD*%
M02*
